<?xml version="1.0" standalone="no"?>
<!DOCTYPE svg PUBLIC "-//W3C//DTD SVG 20010904//EN"
 "http://www.w3.org/TR/2001/REC-SVG-20010904/DTD/svg10.dtd">
<svg version="1.0" xmlns="http://www.w3.org/2000/svg"
 width="515.000000pt" height="515.000000pt" viewBox="0 0 515.000000 515.000000"
 preserveAspectRatio="xMidYMid meet">
<metadata>
Created by potrace 1.14, written by Peter Selinger 2001-2017
</metadata>
<g transform="translate(0.000000,515.000000) scale(0.100000,-0.100000)"
fill="#000000" stroke="none">
<path d="M0 2575 l0 -2575 2575 0 2575 0 0 2575 0 2575 -2575 0 -2575 0 0
-2575z m2830 2465 l55 -7 -56 -2 c-31 0 -72 -3 -90 -6 -29 -4 -30 -3 -9 4 17
6 -32 9 -142 10 -185 1 -378 -16 -356 -31 9 -7 7 -8 -7 -3 -27 9 -131 -5 -114
-16 8 -5 -3 -6 -26 -3 -31 4 -37 3 -25 -5 12 -9 9 -10 -14 -5 -20 5 -27 4 -22
-4 5 -8 1 -10 -9 -6 -22 9 -176 -36 -169 -48 4 -6 -2 -7 -16 -3 -16 5 -20 4
-15 -5 6 -9 1 -10 -16 -5 -21 7 -22 6 -11 -8 11 -13 10 -16 -8 -22 -11 -3 -18
-11 -15 -16 3 -5 -1 -6 -10 -2 -12 4 -13 8 -5 13 8 5 6 9 -6 14 -18 7 -37 -11
-27 -27 3 -5 -5 -4 -17 3 -12 7 -25 8 -29 4 -3 -5 -12 -9 -18 -10 -29 -2 -34
-4 -29 -13 3 -5 0 -9 -7 -8 -34 1 -48 -4 -41 -15 4 -6 3 -8 -4 -5 -14 9 -43
-3 -36 -14 3 -5 -3 -6 -12 -2 -13 5 -15 3 -9 -7 6 -10 4 -12 -8 -7 -9 3 -18 0
-21 -9 -4 -11 -1 -14 13 -9 11 3 22 1 26 -4 4 -7 -1 -8 -11 -4 -10 4 -15 2
-11 -3 3 -5 -3 -10 -13 -10 -12 0 -17 6 -15 18 3 11 -1 15 -11 11 -7 -3 -11
-9 -8 -14 3 -5 -2 -6 -10 -3 -27 10 -18 -5 12 -19 25 -13 33 -11 95 18 37 17
64 35 60 40 -5 4 -3 5 3 2 16 -9 185 54 178 65 -4 6 2 8 14 4 11 -4 39 0 63 8
42 13 137 37 205 51 26 5 32 3 37 -14 3 -14 0 -21 -9 -21 -8 0 -11 6 -8 15 4
8 1 15 -5 15 -6 0 -10 -5 -8 -12 1 -6 -8 -17 -20 -23 -20 -10 -15 -11 31 -11
30 1 52 4 49 9 -2 4 3 7 12 7 9 0 14 -4 11 -8 -3 -5 1 -9 9 -9 10 0 11 5 5 17
-6 12 -5 17 4 17 8 0 12 -12 11 -29 -2 -34 21 -59 31 -33 6 16 8 16 16 1 8
-14 13 -15 24 -5 11 9 14 7 14 -11 0 -17 -4 -21 -20 -17 -13 3 -18 1 -13 -6 4
-6 -2 -8 -16 -4 -17 4 -21 2 -17 -9 3 -8 1 -14 -3 -14 -5 0 -11 6 -14 13 -3 8
-11 5 -26 -10 -25 -27 -27 -27 97 -9 51 7 95 10 97 5 3 -4 15 -5 28 -2 12 3
19 3 16 -1 -4 -4 -28 -9 -55 -12 -27 -3 -65 -9 -84 -14 -33 -8 -33 -9 13 -6
26 1 47 0 47 -3 -1 -17 -19 -32 -36 -30 -11 1 -26 0 -34 -4 -8 -3 -61 -14
-117 -26 -104 -21 -328 -89 -320 -97 2 -2 24 3 48 11 50 18 215 61 271 71 34
5 36 4 31 -15 -4 -15 -1 -21 11 -21 9 0 16 6 17 13 0 10 2 10 6 0 7 -18 23
-16 40 5 8 9 12 12 8 5 -4 -9 8 -11 44 -8 27 1 55 6 62 11 8 5 10 3 4 -7 -7
-11 -6 -12 6 -3 14 11 350 21 339 11 -3 -3 -70 -8 -150 -11 -154 -6 -194 -12
-183 -29 4 -6 1 -7 -8 -1 -24 15 -43 14 -62 -3 -17 -16 -17 -16 -11 0 5 15 3
16 -17 8 -13 -5 -23 -16 -23 -25 1 -10 -8 -18 -25 -22 -14 -3 -31 -7 -38 -9
-6 -2 -13 0 -15 4 -2 5 -11 0 -21 -10 -21 -20 -23 -20 108 1 33 5 121 12 195
15 74 4 159 8 188 9 28 2 52 -1 52 -5 0 -5 -48 -9 -107 -10 -60 0 -117 -2
-128 -4 -11 -2 -44 -5 -72 -6 -29 -1 -53 -6 -53 -10 0 -4 -8 -5 -19 -2 -10 3
-32 -2 -49 -11 -16 -8 -32 -12 -36 -9 -3 4 -6 1 -6 -6 0 -7 -4 -9 -10 -6 -5 3
-10 0 -10 -7 0 -9 -2 -10 -8 -2 -5 9 -10 9 -17 0 -15 -17 -15 -45 1 -39 7 2
11 10 8 17 -3 7 1 13 8 13 7 1 28 6 46 11 19 7 32 7 32 1 0 -5 -4 -9 -10 -9
-5 0 -10 -4 -10 -9 0 -5 17 -7 38 -5 l37 4 -30 -15 c-23 -11 -26 -14 -10 -14
22 -1 34 6 53 31 12 16 10 17 -22 14 -38 -4 -50 8 -16 17 11 3 20 0 20 -6 0
-8 3 -8 8 -2 13 18 31 15 27 -5 -9 -46 -21 -53 -131 -75 -122 -25 -228 -54
-221 -62 3 -2 29 3 59 12 30 8 86 21 126 29 65 12 72 12 73 -3 1 -14 2 -13 6
2 3 11 13 17 31 16 24 -2 24 -2 5 -6 -40 -8 -25 -23 25 -25 l47 -2 -47 -3
c-27 -2 -48 -9 -48 -14 0 -7 20 -9 55 -5 33 3 55 2 55 -4 0 -6 8 -10 18 -10
15 0 15 2 2 11 -11 8 -3 9 33 6 26 -3 50 -1 53 4 3 5 12 9 20 9 8 0 12 -4 9
-10 -4 -6 9 -10 32 -10 21 0 45 -5 53 -10 10 -7 -17 -10 -85 -11 -92 0 -144
-5 -152 -13 -2 -1 62 -1 142 0 122 3 145 1 145 -11 0 -8 -4 -15 -10 -15 -5 0
-10 5 -10 11 0 6 -8 8 -19 4 -10 -3 -40 -6 -65 -7 -25 0 -46 -4 -46 -8 0 -5
-14 -3 -30 3 -25 9 -33 9 -39 -2 -5 -7 -13 -11 -19 -7 -6 3 -14 1 -18 -5 -5
-8 -9 -8 -14 1 -6 9 -12 9 -30 0 -12 -6 -31 -10 -41 -7 -10 3 -22 1 -25 -5 -4
-6 18 -9 57 -7 53 2 65 0 67 -14 3 -15 21 -17 150 -16 81 0 184 -6 229 -14 45
-7 89 -12 97 -11 9 1 16 -2 16 -8 0 -7 -14 -8 -37 -4 -256 45 -570 22 -798
-58 -85 -30 -73 -34 16 -6 95 31 306 65 244 41 -11 -5 -23 -7 -27 -4 -4 2 -5
-4 -1 -13 4 -11 8 -13 11 -6 5 15 62 16 62 2 0 -11 -57 -27 -75 -21 -5 1 -6
-1 -2 -5 4 -4 28 -7 52 -5 43 2 59 -9 33 -25 -7 -4 -8 -3 -4 4 5 8 1 10 -10 5
-14 -5 -13 -8 7 -19 l24 -13 -25 -10 c-17 -6 -19 -10 -8 -10 9 -1 23 7 30 17
15 19 48 26 45 8 -1 -8 28 -10 101 -7 60 2 102 -1 102 -6 0 -15 -12 -23 -24
-16 -12 8 -103 6 -156 -3 -19 -3 -45 -6 -57 -7 -13 0 -23 -5 -23 -10 0 -6 25
-7 60 -4 33 3 60 1 60 -4 0 -8 -26 -13 -72 -12 -10 0 -18 -5 -18 -10 0 -5 -6
-7 -13 -4 -8 3 -20 1 -27 -3 -8 -5 9 -7 41 -5 140 9 239 8 239 -2 0 -5 -43 -7
-95 -5 -94 3 -95 3 -94 -20 1 -13 3 -17 6 -7 6 24 116 21 121 -4 3 -13 -3 -17
-25 -17 -23 0 -85 -5 -115 -9 -5 -1 -8 -5 -8 -11 0 -5 21 -7 50 -3 28 3 50 3
50 0 0 -21 -16 -37 -35 -37 -13 0 -27 -5 -31 -11 -4 -8 1 -9 16 -4 15 5 20 4
16 -4 -11 -18 -1 -13 28 14 15 14 24 25 21 25 -3 0 0 6 7 14 16 17 29 11 21
-9 -3 -9 1 -15 11 -15 9 0 15 3 15 8 -4 22 3 24 17 4 8 -12 20 -20 25 -17 5 4
9 2 9 -4 0 -6 -12 -8 -29 -5 -16 4 -32 1 -35 -5 -8 -12 7 -14 64 -11 l35 2
-24 -23 c-20 -19 -27 -20 -43 -10 -21 13 -122 13 -148 0 -8 -4 -35 -12 -60
-17 -33 -7 -8 -8 98 -5 79 2 148 0 155 -4 7 -4 21 -9 31 -10 11 -2 21 -4 22
-6 1 -1 -66 -2 -149 -2 -108 0 -176 -5 -235 -18 -95 -20 -233 -66 -277 -91
-16 -9 -21 -14 -10 -10 175 61 231 78 308 90 97 14 272 17 322 4 28 -7 27 -8
-15 -10 -43 -2 -42 -3 20 -11 36 -4 74 -10 85 -13 l20 -5 -20 15 c-19 15 -19
15 5 12 14 -2 24 -9 23 -15 -2 -7 14 -15 35 -18 20 -4 57 -13 82 -22 59 -20
201 -85 196 -90 -2 -2 -45 14 -95 37 -66 29 -99 38 -118 34 -22 -6 -23 -8 -8
-16 9 -6 25 -8 36 -5 10 3 17 1 14 -3 -8 -13 34 -33 57 -27 11 3 18 3 15 0 -3
-3 38 -34 91 -69 53 -36 97 -70 97 -77 1 -18 15 -37 27 -37 6 0 5 7 -3 17 -11
13 -8 13 13 -2 15 -11 26 -25 23 -32 -2 -7 1 -15 7 -19 7 -4 8 -3 4 4 -14 23
3 12 39 -25 49 -50 54 -36 6 17 -22 25 -38 47 -36 51 7 11 -43 51 -55 44 -6
-4 -9 -1 -8 7 2 7 -3 12 -10 10 -8 -1 -11 2 -6 9 4 7 0 9 -12 5 -13 -4 -32 6
-59 30 -22 19 -35 33 -28 30 6 -4 15 -1 18 5 5 7 12 3 22 -10 8 -12 20 -21 27
-21 8 0 19 -7 26 -15 7 -8 20 -14 29 -13 8 2 16 -1 16 -7 1 -16 15 -35 27 -35
6 0 5 7 -3 18 -13 16 0 8 41 -27 3 -2 -3 -1 -12 2 -10 4 -18 2 -18 -3 0 -6 5
-10 11 -10 6 0 9 -6 6 -13 -2 -6 21 -41 53 -76 51 -57 57 -61 55 -38 -2 15 1
27 6 27 5 0 9 -5 9 -11 0 -5 5 -7 10 -4 16 10 -8 35 -26 28 -9 -3 -13 -12 -9
-21 5 -12 3 -13 -10 -2 -13 11 -13 15 -3 21 11 8 5 13 -13 11 -3 -1 -18 11
-32 26 -20 21 -24 31 -16 42 9 13 10 13 6 -1 -3 -10 5 -26 19 -40 17 -16 24
-18 24 -8 0 12 2 12 9 0 5 -7 13 -11 19 -7 10 6 53 -38 107 -108 20 -27 26
-41 17 -44 -6 -2 -12 -8 -12 -14 0 -7 5 -6 14 2 12 9 19 4 39 -27 39 -61 93
-173 112 -233 10 -30 20 -50 22 -44 9 27 -97 256 -153 331 -13 17 -24 35 -24
40 -1 4 -19 26 -40 48 -23 23 -35 42 -28 44 7 2 14 -1 16 -7 2 -7 12 -22 23
-34 16 -19 20 -21 28 -8 6 8 13 11 18 7 4 -5 1 -12 -6 -16 -11 -7 -4 -19 29
-52 l42 -44 15 22 15 23 20 -23 19 -22 -6 31 c-6 30 -5 31 27 28 31 -3 31 -3
8 6 -23 9 -23 9 8 6 28 -2 31 0 26 17 -4 13 -2 17 5 13 6 -4 11 -15 11 -24 0
-10 10 -23 23 -31 20 -13 21 -13 9 1 -7 9 -10 24 -6 34 5 16 4 17 -6 4 -9 -12
-10 -11 -5 6 4 15 -4 35 -28 65 -46 61 -51 70 -34 63 8 -3 24 -23 37 -46 17
-30 25 -37 32 -27 7 11 9 11 7 -1 -3 -26 1 -44 8 -37 3 4 12 2 20 -4 9 -9 13
-8 13 0 0 6 -4 11 -10 11 -5 0 -13 12 -16 27 -7 27 -34 63 -34 46 -1 -4 -8 5
-17 21 -17 33 -19 35 -68 91 -43 49 -68 93 -28 50 62 -68 103 -121 103 -134 0
-11 3 -12 11 -4 8 8 6 19 -7 39 l-18 29 23 -23 c14 -14 20 -29 16 -41 -3 -10
1 -24 10 -31 8 -7 15 -18 15 -25 0 -19 27 -38 35 -25 3 5 -1 10 -10 10 -9 0
-13 5 -10 11 4 6 13 8 21 5 18 -7 54 14 54 31 0 7 5 13 11 13 6 0 8 7 5 16 -3
8 -2 13 3 9 5 -3 11 1 14 7 2 7 8 9 13 5 5 -4 3 -12 -4 -16 -9 -5 -10 -14 -3
-32 10 -24 10 -24 10 5 1 29 2 29 16 10 14 -17 14 -15 0 14 -12 26 -13 37 -4
54 l12 22 18 -23 c11 -13 19 -19 19 -13 0 17 -31 43 -42 36 -7 -4 -8 -2 -4 5
4 6 12 9 17 6 11 -7 11 -3 3 19 -3 9 -11 13 -17 9 -6 -3 -7 -1 -3 5 4 7 2 12
-3 12 -6 0 -11 7 -11 16 0 9 -5 12 -12 8 -7 -4 -10 -4 -6 0 4 5 -2 17 -12 29
-11 11 -18 23 -15 25 5 5 34 -25 83 -83 12 -15 22 -33 22 -41 0 -14 11 -18 40
-15 13 2 13 1 0 -8 -8 -5 -11 -13 -7 -18 5 -4 12 -1 17 7 6 10 3 21 -8 34 -16
18 -16 18 8 5 37 -19 60 -21 66 -4 4 8 10 13 14 10 11 -7 22 57 12 64 -5 3
-14 17 -21 31 -10 21 -10 22 1 9 86 -104 82 -100 90 -79 5 14 16 20 38 20 20
0 29 4 24 11 -8 14 38 8 49 -6 4 -6 10 -5 16 4 6 10 14 12 23 5 8 -5 6 -1 -5
8 -10 10 -16 22 -13 27 3 5 -6 31 -21 57 -34 64 -16 46 37 -36 91 -142 175
-342 235 -555 19 -66 34 -113 34 -105 2 70 -126 440 -190 548 -22 38 -24 46
-7 36 7 -4 8 -3 4 5 -4 6 -10 9 -14 7 -4 -2 -15 12 -25 32 -17 33 -17 35 -1
21 16 -13 17 -12 11 5 -6 16 -5 17 8 6 17 -14 21 -35 5 -25 -5 3 -10 2 -10 -4
0 -12 13 -21 39 -26 14 -3 18 1 14 12 -4 11 -8 11 -13 3 -9 -15 -15 -3 -15 30
0 14 -8 34 -17 44 -19 21 -23 36 -10 36 4 0 15 -12 24 -27 9 -16 24 -37 32
-48 9 -11 24 -31 34 -44 13 -17 21 -21 26 -12 5 7 2 10 -5 9 -7 -2 -15 5 -17
16 -2 10 0 16 5 13 4 -3 8 8 9 24 1 15 -3 26 -7 23 -10 -6 -33 35 -25 44 3 3
6 -1 6 -9 1 -8 8 -3 16 11 8 14 13 17 10 7 -6 -20 13 -69 25 -62 4 3 2 21 -4
40 -8 28 -8 38 3 48 8 8 11 8 6 0 -3 -6 -2 -21 2 -34 7 -19 10 -20 15 -6 4 10
2 17 -3 17 -5 0 -7 18 -4 41 4 28 1 45 -9 57 -8 9 -17 31 -21 47 -7 28 -6 29
7 10 8 -11 18 -30 21 -43 6 -17 11 -20 20 -13 7 6 16 7 21 3 4 -4 6 0 3 8 -3
8 -10 15 -16 15 -5 0 -14 4 -19 9 -5 5 -2 6 6 1 9 -5 12 -3 9 6 -3 8 -10 13
-16 12 -6 -2 -9 4 -5 13 3 9 0 14 -8 12 -7 -2 -13 6 -14 16 0 10 -8 20 -17 22
-25 3 -32 -13 -11 -25 17 -10 17 -10 1 -11 -10 0 -18 5 -18 11 0 5 -6 7 -12 3
-10 -6 -10 -5 -1 7 10 13 7 21 -18 48 -17 19 -23 31 -14 27 11 -4 15 -2 13 6
-3 7 -10 14 -16 14 -7 1 -14 3 -17 4 -3 1 -11 3 -17 4 -7 1 -12 8 -10 15 4 17
-28 52 -40 45 -4 -3 -8 -2 -7 3 4 21 -2 25 -14 8 -13 -17 -14 -16 -11 6 1 13
3 26 3 28 1 3 12 -6 26 -19 14 -13 25 -19 25 -13 0 5 -10 19 -23 31 -19 18
-26 19 -37 9 -7 -6 -10 -7 -7 -1 8 14 -36 57 -48 47 -4 -5 -5 -3 -2 3 6 11
-28 46 -37 37 -3 -3 -3 6 0 21 2 14 0 27 -6 27 -5 1 -16 2 -22 3 -7 0 -13 6
-13 13 0 6 -3 15 -7 19 -5 4 -8 3 -8 -3 0 -6 -8 -14 -17 -18 -14 -5 -15 -4 -6
6 10 10 9 15 -5 26 -16 12 -15 13 3 7 13 -4 7 7 -19 30 -22 20 -34 36 -28 36
6 0 14 -5 17 -10 4 -6 11 -7 17 -4 7 4 8 2 4 -4 -5 -8 -1 -10 11 -6 14 4 15 3
4 -4 -9 -7 -10 -12 -2 -16 6 -4 11 -2 11 4 0 6 5 8 10 5 7 -4 7 -12 0 -24 -7
-15 -6 -18 8 -17 10 0 17 -6 16 -16 -1 -9 4 -14 10 -12 7 3 21 -4 31 -16 11
-12 13 -20 6 -20 -7 0 -9 -5 -6 -11 5 -6 11 -4 19 7 11 15 13 15 13 0 0 -9 -4
-16 -9 -16 -5 0 -6 -5 -3 -11 5 -6 12 -4 21 8 13 17 14 17 7 -1 -5 -16 -3 -18
11 -13 11 5 15 3 10 -5 -4 -7 -3 -8 4 -4 7 4 10 2 6 -7 -3 -8 2 -20 11 -27 12
-10 15 -10 15 0 0 10 3 10 15 0 9 -7 14 -19 11 -27 -4 -9 -1 -11 6 -7 7 5 8 3
3 -6 -6 -9 -4 -11 5 -5 8 5 11 4 6 -3 -3 -6 -1 -14 5 -17 5 -4 8 -14 5 -24 -5
-12 -2 -11 9 3 14 19 21 11 16 -17 -1 -5 4 -5 10 -1 8 5 9 3 4 -6 -6 -9 -4
-11 5 -5 9 5 11 4 6 -4 -6 -9 -11 -9 -22 0 -8 7 -14 7 -14 1 0 -10 30 -38 38
-35 3 1 9 7 14 15 7 10 8 8 4 -5 -4 -12 -2 -16 6 -11 7 4 8 3 4 -5 -4 -6 -2
-19 6 -28 9 -12 9 -15 1 -9 -18 10 -16 -9 2 -24 16 -13 20 -6 16 30 -2 13 0
13 8 1 5 -8 7 -19 5 -26 -3 -6 2 -12 11 -12 21 0 19 7 -16 50 -17 21 -27 42
-23 48 4 7 3 9 -3 6 -6 -4 -38 26 -71 66 -108 130 -285 296 -427 400 -84 63
-114 80 -100 58 3 -5 1 -12 -4 -15 -4 -3 -8 4 -7 16 0 12 -4 23 -10 25 -7 2
-11 -7 -9 -26 2 -26 -1 -30 -19 -27 -11 2 -20 9 -18 15 1 7 -3 11 -10 9 -7 -2
-13 2 -13 7 0 5 5 9 12 7 7 -2 10 6 8 19 -2 12 -1 18 3 15 4 -4 7 -17 7 -28 0
-12 5 -23 11 -25 6 -2 10 7 10 22 -1 18 -14 32 -46 52 -86 54 -150 84 -162 77
-6 -4 -8 -3 -4 4 10 17 -161 96 -209 95 -27 0 -34 2 -20 7 16 5 9 11 -35 27
-102 39 -230 74 -368 103 -153 32 -143 41 13 11 418 -80 788 -254 1105 -519
96 -80 263 -246 340 -337 62 -75 130 -167 130 -178 0 -7 -23 -3 -39 7 -17 11
-14 6 39 -74 50 -76 51 -77 36 -77 -7 0 -13 7 -12 16 0 9 -7 16 -16 16 -25 0
-24 -14 4 -57 22 -37 46 -53 35 -24 -4 10 0 13 14 11 13 -3 19 0 16 8 -3 7 -8
11 -13 10 -5 -1 -10 10 -10 23 -1 14 2 21 9 17 6 -3 7 -1 3 6 -4 6 -11 9 -16
6 -5 -3 -14 3 -19 14 -15 27 -14 30 7 27 35 -5 184 -295 252 -491 72 -210 106
-357 104 -455 -1 -40 1 -55 6 -40 10 37 23 -97 16 -173 -3 -43 -2 -53 4 -32 5
20 8 -21 8 -120 0 -82 -3 -154 -8 -160 -4 -5 -11 -37 -14 -70 -3 -41 -2 -50 3
-30 7 23 9 25 10 9 0 -12 -2 -36 -5 -54 -5 -23 -9 -28 -16 -18 -6 8 -7 -9 -4
-47 4 -44 3 -53 -4 -35 -8 20 -9 14 -5 -25 3 -37 1 -45 -6 -30 -7 15 -8 10 -4
-20 2 -22 0 -54 -5 -70 -8 -26 -9 -25 -5 15 3 35 0 28 -15 -30 -20 -80 -24
-108 -10 -75 5 13 9 14 9 5 0 -8 -4 -24 -9 -35 l-9 -20 -1 20 c-1 14 -5 9 -14
-15 -9 -23 -15 -30 -18 -20 -3 8 -4 4 -2 -10 4 -39 -11 -58 -25 -31 -9 16 -9
21 0 21 7 0 9 9 5 26 -5 17 -3 23 4 19 5 -3 10 0 10 7 0 9 3 9 10 -2 9 -13 10
-13 9 0 0 8 -4 24 -9 35 -8 19 -9 19 -9 1 -1 -11 -4 -17 -7 -13 -3 3 -2 16 2
29 7 23 7 23 21 -7 l13 -30 -6 34 c-5 25 -3 32 6 26 9 -6 10 1 5 26 -4 25 -3
30 4 19 14 -19 14 -5 0 43 -13 48 -4 62 10 16 l11 -34 -5 40 c-4 25 -2 35 3
27 12 -18 25 59 16 95 -5 18 -4 24 5 19 14 -9 15 26 2 71 -5 18 -6 35 -1 38 5
3 11 -9 13 -27 3 -18 4 5 2 52 -1 50 1 77 6 65 4 -11 7 52 7 145 -1 113 -3
151 -9 120 -6 -34 -7 -21 -5 50 1 52 0 85 -2 73 -6 -38 -18 -26 -14 13 3 27 7
33 14 23 7 -10 8 -7 4 11 -3 14 -6 34 -7 45 l0 20 -9 -20 c-6 -13 -7 -2 -3 33
3 32 2 52 -5 52 -5 0 -13 7 -16 16 -3 8 -2 12 4 9 15 -10 12 5 -6 22 -10 11
-12 18 -5 23 7 4 9 19 5 39 -5 24 -9 29 -16 19 -5 -8 -6 1 -2 25 4 25 3 37 -5
37 -7 0 -9 5 -6 10 3 6 0 10 -7 10 -8 0 -6 5 5 11 19 11 22 36 7 59 -7 11 -9
5 -5 -20 3 -19 2 -28 -1 -20 -4 8 -14 31 -23 50 -9 19 -16 42 -17 50 -2 33
-17 80 -26 80 -5 0 -7 4 -4 9 8 12 -4 41 -16 41 -5 0 -6 -5 -2 -12 4 -7 3 -8
-4 -4 -9 5 -7 15 6 34 11 17 12 23 3 18 -10 -7 -12 -3 -7 15 l7 24 -16 -25
-16 -25 7 24 c4 16 3 21 -5 17 -7 -5 -8 -1 -4 10 4 12 3 15 -5 10 -8 -5 -10
-1 -5 10 4 10 2 15 -4 11 -5 -3 -9 4 -9 16 1 12 -4 21 -10 20 -8 -1 -10 6 -6
19 3 14 1 19 -6 14 -8 -5 -10 -1 -5 10 5 13 3 15 -7 9 -9 -5 -11 -4 -6 3 4 6
0 25 -9 41 -8 17 -15 34 -14 38 0 4 22 -35 49 -87 27 -52 49 -92 49 -87 1 4
-19 47 -43 95 -39 77 -47 88 -70 88 -15 0 -25 -5 -22 -10 2 -6 9 -10 15 -8 7
1 9 -2 5 -9 -5 -9 -12 -6 -25 10 -33 41 -29 3 6 -55 19 -32 35 -64 35 -71 0
-7 5 -13 10 -13 6 0 10 -6 10 -13 0 -7 16 -51 36 -97 46 -111 108 -323 133
-458 59 -319 56 -632 -10 -947 -25 -122 -98 -348 -145 -451 -19 -43 -33 -83
-30 -91 3 -8 1 -11 -4 -8 -5 3 -26 -27 -46 -66 -20 -40 -46 -88 -59 -108 -13
-20 -25 -42 -27 -50 -2 -7 -15 -27 -30 -45 -29 -32 -37 -52 -15 -40 7 4 9 3 4
-2 -5 -5 -12 -9 -17 -9 -14 0 -112 -134 -105 -144 3 -6 0 -13 -6 -17 -8 -5 -9
-3 -4 7 4 8 -48 -44 -115 -115 -119 -123 -209 -203 -309 -274 -25 -18 -45 -37
-43 -43 1 -6 -2 -8 -7 -4 -18 10 -90 -45 -86 -66 2 -10 0 -21 -5 -24 -5 -3 -7
4 -5 15 4 23 1 24 -26 9 -11 -5 -16 -15 -13 -21 4 -6 3 -8 -3 -5 -11 7 -128
-49 -128 -61 0 -4 -4 -13 -9 -21 -7 -10 -4 -12 13 -6 15 5 21 2 21 -9 0 -19
-7 -19 -39 -2 -21 12 -21 14 -6 20 10 3 16 9 13 11 -3 3 -45 -13 -94 -36 -118
-55 -231 -94 -353 -123 -69 -16 -98 -20 -95 -11 3 7 -5 15 -16 18 -12 3 -19
10 -15 16 3 6 0 9 -8 5 -8 -3 -14 1 -14 10 0 10 9 13 32 9 18 -3 35 -1 39 5 4
6 -3 8 -16 6 -21 -4 -22 -4 -3 5 11 5 34 10 50 10 23 1 27 4 15 11 -12 8 -12
10 -1 10 8 0 12 2 10 5 -3 2 -26 -2 -52 -10 -26 -8 -54 -12 -62 -9 -8 4 -15 1
-15 -4 0 -6 -9 -10 -20 -9 -11 1 -20 7 -20 14 0 7 7 10 18 7 14 -5 14 -4 2 4
-8 6 -28 9 -45 6 l-30 -4 30 10 c21 7 38 7 57 -1 19 -8 32 -8 45 0 10 6 12 11
6 11 -21 0 -15 20 6 20 11 0 23 5 26 10 4 6 -7 10 -24 10 -27 0 -31 -4 -32
-27 -1 -23 -2 -25 -7 -8 -8 22 -9 22 -67 12 -97 -18 -100 -19 -85 -8 8 5 11
14 6 18 -4 4 -13 1 -19 -7 -14 -17 -47 -25 -47 -12 0 5 7 15 15 22 8 7 15 19
15 26 0 21 30 17 31 -3 0 -15 2 -15 9 3 6 15 26 24 82 36 97 21 251 68 244 75
-2 3 -26 -2 -53 -10 -84 -27 -107 -29 -148 -10 -22 9 -44 16 -48 15 -4 -1 -27
-5 -50 -7 -23 -3 -54 -8 -69 -11 -25 -5 -28 -3 -26 19 1 14 6 23 10 21 5 -3 6
-8 4 -12 -2 -4 9 -7 25 -7 16 -1 29 2 29 6 0 4 6 9 13 12 6 2 2 2 -10 0 -13
-2 -23 2 -23 8 0 7 3 10 6 6 3 -3 17 -2 30 3 14 6 26 6 29 0 9 -15 25 -12 25
4 0 8 6 17 13 20 13 7 -22 3 -158 -19 -49 -7 -145 -16 -212 -20 -114 -5 -123
-4 -122 12 0 10 3 13 5 6 5 -11 86 -10 243 2 69 6 93 14 45 16 -22 1 -16 5 26
16 30 8 63 15 73 16 9 1 17 5 17 10 0 4 8 7 18 6 28 -2 42 0 42 10 0 4 -19 5
-42 0 -63 -12 -79 -9 -33 7 l40 14 -59 -6 c-47 -5 -57 -3 -50 8 4 7 -2 5 -13
-5 -19 -17 -43 -23 -43 -11 0 12 34 33 53 34 53 1 337 83 394 114 36 19 21 21
-16 2 -51 -27 -385 -106 -396 -94 -2 2 23 10 55 17 33 8 60 18 60 23 0 5 5 6
10 3 6 -3 10 -3 10 2 0 4 12 9 26 10 14 0 31 6 38 13 8 9 5 10 -14 6 -14 -3
-61 -7 -105 -10 -44 -3 -96 -8 -115 -12 -19 -4 -32 -4 -28 0 3 4 21 9 40 12
75 10 168 38 168 51 0 10 -8 11 -27 6 -16 -4 -39 -7 -53 -7 -14 0 -27 -3 -30
-7 -3 -3 -23 -9 -45 -12 -27 -4 -35 -3 -25 3 12 8 9 10 -12 10 -16 0 -28 -6
-28 -12 0 -9 -4 -8 -10 2 -5 8 -10 10 -10 5 0 -6 -16 -10 -37 -8 -36 2 -37 2
-8 -6 l30 -9 -32 -1 c-20 -1 -33 4 -34 12 0 9 -2 9 -6 0 -7 -18 -33 -16 -33 2
0 10 11 15 35 15 28 0 33 3 29 18 -5 16 -5 16 6 0 12 -20 69 -14 83 9 4 7 18
13 30 13 31 1 119 25 113 31 -3 3 -45 -1 -93 -8 -135 -20 -376 -18 -515 6 -64
10 -125 24 -135 30 -19 12 -13 12 67 -4 44 -9 103 -15 187 -20 46 -2 87 -7 93
-10 5 -3 15 -3 21 1 18 11 109 10 109 -1 0 -5 5 -3 10 5 9 13 10 13 10 0 0
-11 2 -12 8 -3 4 7 41 17 82 23 125 17 181 30 278 62 100 34 119 49 28 23 -31
-9 -65 -13 -77 -10 -14 5 -19 3 -15 -4 5 -7 -10 -10 -46 -8 -29 1 -65 -1 -81
-6 -15 -4 -27 -4 -26 0 4 21 -2 33 -17 33 -8 0 -12 5 -9 10 11 18 35 11 35
-10 0 -15 6 -20 28 -19 16 1 20 3 10 6 -10 2 -18 8 -18 13 0 5 8 7 18 3 14 -5
13 -3 -3 10 -20 16 -19 16 7 17 15 0 30 5 33 10 3 6 17 10 31 10 13 0 24 4 24
10 0 5 -6 7 -12 5 -7 -2 -42 -6 -78 -9 -36 -3 -82 -8 -102 -12 -32 -5 -38 -4
-38 10 0 14 -6 16 -34 11 -20 -4 -36 -2 -40 4 -5 7 4 11 23 11 16 0 33 5 36
10 4 6 10 8 15 5 5 -3 11 -1 14 4 7 10 -19 9 -30 -1 -9 -10 -35 3 -28 14 4 6
-7 9 -27 7 -19 -1 -47 -1 -64 1 l-30 2 30 7 c40 10 105 2 105 -13 0 -6 5 -3
11 7 6 10 9 21 6 23 -2 3 -50 5 -106 6 -55 0 -101 4 -101 8 0 5 28 8 63 8 107
1 117 2 117 10 0 4 -53 7 -118 7 -146 1 -295 22 -279 40 7 7 14 10 17 6 21
-30 277 -46 420 -27 30 4 71 10 90 12 19 2 39 9 44 14 13 13 1 13 -44 1 -59
-16 -170 -20 -178 -6 -4 7 -14 14 -22 17 -8 3 17 8 55 12 92 10 104 15 30 15
-165 -1 -239 2 -226 10 7 5 31 7 53 5 30 -3 44 0 54 13 12 16 13 16 8 1 -5
-13 0 -17 26 -16 22 1 29 5 26 15 -4 9 5 13 32 14 20 1 47 4 60 7 13 4 -46 8
-130 8 -84 1 -166 4 -183 7 -16 3 -49 8 -72 12 -24 4 -43 11 -43 15 0 4 30 1
68 -6 76 -15 305 -17 379 -3 110 22 259 66 250 75 -1 2 -43 -8 -92 -22 -96
-26 -314 -46 -285 -25 12 8 8 11 -19 11 -60 0 -29 7 64 14 49 4 91 9 93 10 1
2 -74 3 -168 2 -94 -1 -172 0 -175 2 -2 2 -23 5 -47 7 -24 1 -61 11 -83 21
-22 9 -47 18 -55 19 -17 2 -69 24 -145 61 -51 25 -82 32 -55 13 13 -9 13 -10
0 -6 -8 2 -15 8 -15 13 0 15 -15 34 -27 34 -6 0 -5 -7 3 -17 13 -15 12 -15
-10 -3 -36 19 -91 72 -85 81 5 8 -10 13 -28 10 -5 0 -8 6 -8 14 0 19 14 19 30
0 7 -8 17 -15 22 -15 6 0 5 7 -2 15 -9 11 -9 15 -1 15 7 0 9 5 6 10 -11 18 7
11 44 -17 20 -16 43 -27 51 -25 13 2 13 1 1 -7 -16 -10 -42 -1 -73 27 -12 10
-18 11 -18 4 0 -7 6 -12 13 -13 9 0 9 -2 -1 -6 -10 -4 -10 -8 -1 -19 13 -16
33 -19 23 -3 -3 6 8 3 26 -6 17 -9 29 -19 26 -23 -4 -3 -12 0 -18 6 -7 7 -17
12 -22 12 -6 0 0 -7 12 -16 12 -8 26 -13 31 -10 5 3 31 -6 57 -20 27 -14 41
-19 31 -11 -18 15 -17 15 3 22 12 4 24 4 27 1 4 -3 0 -6 -8 -6 -10 -1 -9 -4 4
-11 9 -5 22 -7 29 -3 6 4 8 3 5 -3 -8 -12 20 -26 34 -17 5 3 26 0 45 -6 28 -9
33 -15 23 -22 -10 -7 -8 -8 8 -3 12 3 34 3 49 -1 23 -6 25 -8 11 -13 -10 -4 9
-7 41 -6 33 0 55 3 49 7 -7 4 -22 8 -34 8 -72 0 -453 170 -426 189 5 3 -34 49
-87 100 -54 54 -83 78 -66 55 15 -21 56 -65 90 -96 33 -32 56 -57 51 -58 -6 0
-50 38 -98 85 -48 47 -87 82 -87 78 0 -4 33 -40 72 -80 40 -40 68 -73 62 -73
-5 0 -14 3 -20 8 -5 4 -1 -1 10 -11 23 -22 13 -36 -11 -15 -32 27 -50 33 -30
11 10 -12 14 -23 10 -26 -10 -6 -35 7 -34 17 1 3 -15 20 -34 38 -20 17 -34 37
-31 44 3 8 0 11 -10 7 -7 -3 -15 0 -15 6 -3 26 -4 30 -13 38 -5 5 -6 3 -2 -4
12 -21 -4 -15 -26 10 -11 12 -8 5 7 -16 15 -21 24 -41 21 -45 -4 -3 -13 4 -22
16 -8 12 -21 22 -27 22 -8 0 -9 -3 -1 -8 5 -4 23 -25 39 -47 l29 -40 -48 45
c-55 52 -144 181 -182 264 -14 31 -28 55 -31 52 -14 -13 117 -232 201 -336 12
-14 6 -11 -12 7 -35 35 -60 37 -42 2 6 -10 8 -19 6 -19 -3 0 -10 10 -17 21 -9
17 -8 23 2 30 11 7 11 10 -1 21 -8 7 -11 9 -7 4 4 -5 0 -17 -9 -27 -9 -10 -16
-30 -16 -44 0 -22 -5 -25 -37 -25 -23 0 -31 -3 -23 -9 11 -6 9 -9 -7 -14 -11
-2 -22 0 -25 7 -3 7 -5 7 -5 0 -1 -5 8 -20 19 -32 l20 -21 -23 2 c-12 1 -22
-2 -22 -8 0 -5 10 -9 23 -8 12 1 22 -2 22 -8 0 -6 -4 -8 -9 -5 -5 3 -11 0 -14
-7 -3 -8 6 -12 24 -13 30 -1 79 -28 79 -44 0 -6 -9 -1 -20 10 -35 35 -43 21
-9 -15 19 -19 41 -35 51 -35 11 0 15 -5 12 -15 -4 -9 0 -15 10 -15 9 0 16 -4
16 -10 0 -26 -36 -4 -95 57 -36 37 -65 64 -65 59 0 -5 -8 -2 -18 7 -10 10 -22
14 -27 10 -4 -5 -5 -3 -1 4 3 6 1 15 -5 19 -8 4 -9 3 -5 -4 4 -7 2 -12 -5 -12
-10 0 -10 -3 -1 -12 15 -15 15 -28 0 -28 -6 0 -8 3 -5 7 12 12 -27 32 -40 21
-16 -13 -17 4 -1 20 9 9 9 12 0 12 -7 0 -12 -4 -12 -10 0 -5 -7 -10 -15 -10
-8 0 -15 5 -15 12 0 6 -3 8 -6 5 -4 -4 1 -18 10 -33 20 -30 20 -31 -17 -38
-22 -4 -27 -1 -27 17 0 20 0 20 15 1 13 -17 14 -17 15 -1 0 9 -4 17 -10 17 -5
0 -10 8 -11 18 0 9 -6 1 -13 -18 -12 -30 -11 -38 2 -52 24 -29 8 -21 -19 9
-13 14 -17 23 -9 19 8 -5 2 3 -15 17 -27 22 -28 26 -15 43 14 17 13 18 -1 6
-14 -11 -22 -4 -57 50 -41 64 -111 202 -131 259 -6 18 -13 30 -16 27 -19 -19
131 -298 231 -430 24 -32 40 -58 34 -58 -5 0 -7 -6 -4 -14 3 -8 1 -17 -4 -20
-5 -3 -29 19 -52 49 -40 52 -60 67 -60 46 0 -5 5 -11 12 -13 7 -3 8 -10 4 -17
-6 -10 -14 -6 -32 15 -28 35 -31 20 -4 -21 26 -39 25 -47 -4 -39 -13 3 -27 1
-30 -5 -4 -6 -2 -11 3 -11 6 0 11 -4 11 -10 0 -5 -7 -7 -15 -4 -8 4 -15 1 -15
-5 0 -6 8 -11 18 -11 11 0 27 -10 38 -22 l19 -23 -22 18 c-22 19 -43 16 -43
-6 0 -7 4 -6 11 3 9 13 10 13 6 -2 -7 -21 18 -46 26 -26 4 9 6 9 6 1 2 -27
-20 -21 -51 13 -111 121 -257 387 -322 584 -19 58 -35 99 -36 91 -1 -30 74
-233 125 -336 30 -60 81 -152 114 -203 34 -51 60 -96 60 -100 -1 -4 -1 -14 0
-22 1 -12 3 -12 10 -2 6 9 23 -6 63 -55 79 -97 187 -201 286 -275 28 -21 52
-41 52 -44 0 -14 -145 104 -254 206 -32 30 -62 54 -67 53 -5 -2 -6 3 -3 11 3
7 -2 19 -11 26 -8 7 -15 9 -15 5 0 -4 -6 -2 -14 5 -8 6 -13 17 -10 24 3 7 -3
19 -12 27 -16 12 -17 12 -11 -4 4 -10 -9 -2 -28 19 -19 20 -35 44 -35 52 0 8
-3 13 -6 9 -9 -9 7 -68 17 -61 5 3 9 0 9 -5 0 -24 -29 -9 -39 19 -5 17 -12 30
-15 30 -8 0 -2 -53 7 -67 4 -7 3 -14 -2 -17 -5 -4 -12 7 -16 24 -7 31 -12 34
-39 24 -12 -5 -13 -10 -4 -30 6 -13 14 -24 17 -24 9 0 44 -60 39 -65 -2 -3
-21 13 -42 35 -21 22 -42 38 -47 35 -12 -8 -49 13 -49 27 0 7 5 6 15 -2 9 -7
19 -10 22 -6 9 9 -18 27 -32 22 -5 -2 -15 6 -22 18 -10 17 -12 18 -13 4 0 -9
5 -20 10 -23 6 -4 8 -15 5 -25 -3 -10 -1 -21 4 -25 7 -4 9 1 5 12 -3 10 5 1
18 -19 23 -37 42 -50 36 -25 -2 6 2 12 7 12 6 0 8 -4 6 -10 -2 -5 -4 -18 -5
-27 0 -16 -3 -16 -21 -4 -11 8 -19 20 -17 26 1 6 -2 9 -7 6 -14 -9 -121 158
-189 296 -34 68 -82 179 -106 248 -46 128 -63 154 -25 39 66 -201 203 -473
309 -611 18 -24 19 -26 3 -23 -10 2 -20 4 -23 5 -3 1 -8 2 -12 1 -12 -2 -9 14
4 28 11 11 10 13 -4 8 -12 -4 -15 -2 -11 9 3 7 0 14 -7 14 -6 0 -9 4 -5 9 3 5
1 12 -4 15 -5 4 -13 1 -17 -5 -5 -8 -13 -4 -27 12 l-19 24 14 -25 c9 -14 22
-25 29 -25 8 0 13 -8 13 -18 -1 -9 2 -17 7 -17 5 0 9 -7 9 -15 0 -22 -18 -18
-25 6 -7 20 -7 20 -22 2 -8 -10 -12 -12 -8 -6 3 7 -1 25 -9 40 -8 16 -15 24
-16 18 0 -5 -12 13 -25 42 -35 73 -51 79 -45 18 l2 -20 -17 20 c-15 18 -16 18
-11 2 3 -10 6 -23 6 -28 0 -6 4 -8 9 -5 9 6 22 -17 20 -37 0 -7 -4 -3 -9 8 -6
14 -9 15 -10 5 0 -8 -7 0 -16 19 -8 19 -12 42 -9 53 7 20 -11 26 -18 6 -3 -8
-8 -6 -13 7 -4 11 -17 29 -27 40 l-19 20 6 -20 c5 -16 1 -20 -19 -21 -14 -1
-25 2 -25 7 0 5 5 9 10 9 6 0 10 5 10 10 0 17 -14 10 -33 -15 -12 -16 -15 -30
-10 -40 8 -13 12 -12 32 6 12 11 25 18 29 14 3 -3 0 -10 -7 -14 -10 -6 -10
-10 -2 -16 9 -5 9 -10 1 -20 -7 -8 -8 -20 -4 -27 5 -7 8 -22 9 -33 0 -12 6
-19 14 -17 8 2 11 -3 8 -12 -8 -21 4 -28 18 -9 16 21 42 25 49 7 4 -11 1 -12
-12 -5 -14 7 -21 5 -30 -10 -14 -22 -15 -32 -4 -25 5 3 9 0 9 -7 0 -22 45 -87
56 -80 6 4 7 1 2 -6 -10 -17 -17 -8 -93 110 -285 447 -414 995 -357 1519 24
220 56 361 130 564 88 243 219 473 386 680 26 33 45 64 42 69 -3 6 -1 7 5 3
13 -8 83 73 75 88 -3 6 -3 8 1 4 10 -8 252 210 248 224 -1 5 2 7 8 3 14 -9 42
14 33 28 -3 6 -1 7 6 3 15 -10 43 13 34 27 -3 6 -1 7 5 3 18 -11 61 23 57 45
-2 11 0 17 6 14 5 -4 6 -11 3 -17 -4 -6 -1 -9 7 -6 8 3 13 14 13 26 -1 12 3
19 7 16 5 -3 7 -10 4 -15 -11 -16 5 -10 55 24 28 19 47 37 42 42 -4 5 -1 5 5
1 15 -8 97 37 86 47 -11 12 -24 8 -17 -5 4 -8 3 -10 -2 -5 -5 5 -9 14 -9 19 0
6 -5 13 -12 15 -16 6 -55 -35 -47 -49 4 -7 3 -8 -5 -4 -6 4 -9 12 -6 17 3 5
-1 6 -9 3 -9 -3 -13 -10 -10 -15 3 -5 -3 -6 -12 -2 -12 4 -15 3 -10 -6 4 -6 4
-11 -1 -10 -22 4 -31 -3 -28 -21 2 -11 0 -22 -5 -25 -5 -3 -7 4 -5 15 3 14 0
20 -8 17 -7 -3 -11 -9 -10 -15 2 -6 -4 -9 -13 -5 -9 3 -14 0 -12 -8 2 -9 -4
-13 -15 -11 -10 2 -16 -2 -15 -10 2 -6 -4 -13 -12 -14 -31 -2 -32 -4 -19 -21
13 -16 12 -17 -3 -5 -19 15 -42 7 -32 -10 4 -7 2 -8 -5 -4 -17 11 -40 -12 -36
-36 3 -11 1 -18 -2 -14 -26 26 -4 49 144 148 265 177 629 314 978 367 137 20
491 27 605 11z m-403 -16 c-3 -3 -12 -4 -19 -1 -8 3 -5 6 6 6 11 1 17 -2 13
-5z m76 -51 c-7 -2 -19 -2 -25 0 -7 3 -2 5 12 5 14 0 19 -2 13 -5z m-163 -13
c-8 -5 -28 -9 -45 -9 -30 2 -30 2 5 9 51 11 57 11 40 0z m-97 -25 c-24 -32
-38 -32 -17 0 9 14 20 25 26 25 5 0 1 -11 -9 -25z m-48 -1 c-16 -8 -37 -22
-46 -30 -8 -8 -19 -11 -22 -7 -12 12 -7 23 11 24 14 0 14 2 -3 9 -20 8 -19 8
75 18 8 1 2 -5 -15 -14z m77 -56 c-33 -13 -62 -9 -62 10 0 12 3 13 8 5 9 -15
52 -6 52 11 0 6 5 4 10 -4 7 -11 5 -17 -8 -22z m-438 7 c-4 -8 -11 -15 -16
-15 -6 0 -5 6 2 15 7 8 14 15 16 15 2 0 1 -7 -2 -15z m1551 -3 c-3 -3 -11 0
-18 7 -9 10 -8 11 6 5 10 -3 15 -9 12 -12z m-80 -30 c-3 -3 -11 0 -18 7 -9 10
-8 11 6 5 10 -3 15 -9 12 -12z m-916 -16 c-8 -8 -99 -15 -95 -7 3 4 26 9 52
10 26 0 46 0 43 -3z m1126 -6 c3 -6 -1 -7 -9 -4 -18 7 -21 14 -7 14 6 0 13 -4
16 -10z m47 -25 c0 -5 -5 -10 -12 -11 -7 -2 -6 -1 1 3 8 4 7 8 -2 15 -11 8
-11 9 -1 6 8 -2 14 -8 14 -13z m-1967 -23 c-3 -3 -11 0 -18 7 -9 10 -8 11 6 5
10 -3 15 -9 12 -12z m708 11 c-7 -2 -19 -2 -25 0 -7 3 -2 5 12 5 14 0 19 -2
13 -5z m1307 -3 c13 -9 13 -10 0 -10 -8 -1 -4 -6 9 -11 13 -5 21 -12 18 -15
-10 -10 -48 17 -41 28 5 8 1 9 -10 5 -10 -4 -15 -3 -11 3 8 12 16 12 35 0z
m-1157 -17 c-7 -2 -19 -2 -25 0 -7 3 -2 5 12 5 14 0 19 -2 13 -5z m-91 -30
c-6 -2 -10 -9 -6 -14 3 -5 0 -9 -5 -9 -6 0 -11 7 -11 15 0 8 8 15 18 14 10 0
12 -3 4 -6z m75 -15 c-3 -8 -6 -5 -6 6 -1 11 2 17 5 13 3 -3 4 -12 1 -19z
m1287 -9 c-3 -6 0 -10 7 -8 27 3 40 -1 34 -12 -4 -6 0 -9 11 -7 12 2 18 -2 16
-11 -2 -9 3 -11 15 -7 13 5 15 4 7 -4 -14 -14 -97 31 -100 54 -1 9 2 14 7 10
5 -3 7 -10 3 -15z m-1327 5 c-3 -3 -12 -4 -19 -1 -8 3 -5 6 6 6 11 1 17 -2 13
-5z m1300 -29 c0 -8 -4 -12 -9 -9 -5 3 -6 10 -3 15 9 13 12 11 12 -6z m-2342
-24 c3 -5 2 -12 -3 -15 -5 -3 -9 1 -9 9 0 17 3 19 12 6z m-29 -16 c-1 -8 -5
-17 -8 -21 -5 -4 -4 16 1 34 3 9 9 -1 7 -13z m2474 -9 c0 -3 -4 -8 -10 -11 -5
-3 -10 -1 -10 4 0 6 5 11 10 11 6 0 10 -2 10 -4z m-923 -12 c-3 -3 -12 -4 -19
-1 -8 3 -5 6 6 6 11 1 17 -2 13 -5z m-597 -39 c0 -8 -2 -15 -4 -15 -2 0 -6 7
-10 15 -3 8 -1 15 4 15 6 0 10 -7 10 -15z m453 8 c-18 -2 -48 -2 -65 0 -18 2
-4 4 32 4 36 0 50 -2 33 -4z m362 -3 c3 -5 1 -10 -4 -10 -6 0 -11 5 -11 10 0
6 2 10 4 10 3 0 8 -4 11 -10z m988 -108 c37 -30 67 -57 67 -60 0 -3 -8 2 -18
11 -10 10 -21 17 -24 17 -10 0 -3 -27 12 -45 13 -16 25 -53 13 -42 -2 3 -5 9
-5 14 0 4 -9 14 -20 22 -11 7 -17 19 -14 26 2 7 -1 18 -7 24 -6 6 -7 11 -3 11
5 0 3 7 -4 15 -7 8 -17 15 -22 15 -6 0 -5 -7 2 -15 7 -8 9 -15 5 -15 -4 0 -2
-6 4 -14 9 -11 9 -16 0 -22 -7 -4 -9 -3 -5 4 3 6 2 13 -4 17 -5 3 -10 1 -10
-6 0 -7 -3 -9 -6 -6 -4 4 -1 13 5 21 8 10 9 16 1 21 -5 3 -10 2 -10 -4 0 -12
-30 -2 -49 16 -20 20 -4 29 17 10 10 -10 23 -17 28 -17 5 0 -2 9 -16 20 -20
16 -21 19 -5 14 12 -4 17 -3 12 2 -9 10 -56 14 -55 4 1 -15 -3 -21 -12 -15 -6
4 -7 12 -3 18 11 18 12 36 2 43 -8 5 -13 -9 -10 -28 0 -5 -6 -8 -15 -8 -10 0
-12 5 -7 13 11 18 13 38 2 31 -5 -3 -7 -10 -4 -15 4 -5 1 -9 -4 -9 -9 0 -9 18
-2 48 2 5 95 -61 164 -116z m-1270 101 c-7 -2 -19 -2 -25 0 -7 3 -2 5 12 5 14
0 19 -2 13 -5z m287 -23 c18 -12 2 -12 -25 0 -13 6 -15 9 -5 9 8 0 22 -4 30
-9z m100 -4 c-4 -4 -16 -4 -26 2 -16 9 -14 10 8 9 15 -1 23 -6 18 -11z m-5
-34 c-3 -3 -11 0 -18 7 -9 10 -8 11 6 5 10 -3 15 -9 12 -12z m-2115 5 c0 -2
-10 -12 -22 -23 l-23 -19 19 23 c18 21 26 27 26 19z m2080 -17 c8 -4 23 -6 34
-4 13 2 15 -1 8 -8 -10 -10 -110 6 -142 23 -18 10 79 -1 100 -11z m177 14 c-3
-3 -12 -4 -19 -1 -8 3 -5 6 6 6 11 1 17 -2 13 -5z m-930 -10 c-3 -3 -12 -4
-19 -1 -8 3 -5 6 6 6 11 1 17 -2 13 -5z m889 -22 c-10 -2 -22 0 -28 6 -6 6 0
7 19 4 21 -5 23 -7 9 -10z m-706 2 c-33 -9 -210 -19 -210 -12 0 4 28 9 63 11
90 5 164 5 147 1z m53 -1 c-7 -2 -19 -2 -25 0 -7 3 -2 5 12 5 14 0 19 -2 13
-5z m780 -5 c15 -7 27 -16 27 -20 0 -8 -48 10 -64 24 -15 12 6 10 37 -4z
m-159 -17 c3 -4 -6 -6 -19 -3 -14 2 -25 6 -25 8 0 8 39 4 44 -5z m-824 -17 c0
-2 -12 -4 -26 -4 -14 0 -23 4 -20 9 6 8 46 4 46 -5z m277 0 c-3 -3 -12 -4 -19
-1 -8 3 -5 6 6 6 11 1 17 -2 13 -5z m624 -6 c22 -6 39 -15 39 -19 0 -8 -87 15
-98 25 -9 10 18 7 59 -6z m-508 -5 c-7 -2 -19 -2 -25 0 -7 3 -2 5 12 5 14 0
19 -2 13 -5z m904 1 c-3 -3 -12 -4 -19 -1 -8 3 -5 6 6 6 11 1 17 -2 13 -5z
m-840 -10 c-3 -3 -12 -4 -19 -1 -8 3 -5 6 6 6 11 1 17 -2 13 -5z m230 0 c-3
-3 -12 -4 -19 -1 -8 3 -5 6 6 6 11 1 17 -2 13 -5z m-757 -10 c0 -8 -19 -13
-24 -6 -3 5 1 9 9 9 8 0 15 -2 15 -3z m583 -1 c-7 -2 -19 -2 -25 0 -7 3 -2 5
12 5 14 0 19 -2 13 -5z m657 -115 c0 -4 -23 6 -50 22 -28 17 -54 30 -57 30
-15 0 -113 53 -113 61 0 5 50 -16 110 -48 61 -31 110 -61 110 -65z m-603 106
c-3 -3 -12 -4 -19 -1 -8 3 -5 6 6 6 11 1 17 -2 13 -5z m111 -30 c34 -9 61 -19
59 -21 -6 -5 -148 34 -156 43 -3 4 3 4 14 1 11 -3 48 -13 83 -23z m-2198 3 c0
-2 -10 -12 -22 -23 l-23 -19 19 23 c18 21 26 27 26 19z m2365 -7 c3 -6 -1 -7
-9 -4 -18 7 -21 14 -7 14 6 0 13 -4 16 -10z m-662 -7 c-13 -2 -33 -2 -45 0
-13 2 -3 4 22 4 25 0 35 -2 23 -4z m1622 -33 c21 -22 37 -40 34 -40 -3 0 -23
18 -44 40 -21 22 -37 40 -34 40 3 0 23 -18 44 -40z m-1360 10 l20 -9 -20 0
c-11 0 -29 4 -40 9 l-20 9 20 0 c11 0 29 -4 40 -9z m330 -8 c-3 -3 -11 0 -18
7 -9 10 -8 11 6 5 10 -3 15 -9 12 -12z m-2345 -5 c0 -2 -17 -19 -37 -38 l-38
-34 34 38 c33 34 41 42 41 34z m1861 -17 c16 0 29 5 29 10 0 16 27 12 34 -5 4
-11 13 -14 32 -9 14 4 36 1 50 -6 27 -15 33 -36 7 -25 -40 17 -98 23 -105 12
-6 -9 -10 -8 -17 2 -6 9 -20 12 -40 9 -26 -4 -31 -1 -30 16 0 12 3 15 6 9 2
-7 18 -13 34 -13z m206 14 c-3 -3 -12 -4 -19 -1 -8 3 -5 6 6 6 11 1 17 -2 13
-5z m54 -12 c-13 -2 -27 0 -32 5 -6 6 3 7 23 4 28 -4 29 -6 9 -9z m56 -8 c-3
-3 -12 -4 -19 -1 -8 3 -5 6 6 6 11 1 17 -2 13 -5z m288 -14 c3 -6 -1 -7 -9 -4
-18 7 -21 14 -7 14 6 0 13 -4 16 -10z m351 -32 c61 -40 58 -37 53 -43 -3 -2
-32 14 -64 35 -33 22 -55 40 -49 40 6 0 33 -14 60 -32z m-706 14 c0 -5 21 -14
48 -20 l47 -10 -50 4 c-27 3 -52 10 -56 16 -4 5 -16 7 -27 4 -11 -4 -23 -2
-27 4 -4 6 7 10 29 10 20 0 36 -4 36 -8z m-514 -13 c4 -8 9 -7 15 2 7 11 9 11
9 1 0 -7 5 -10 12 -6 7 4 8 3 4 -4 -10 -17 -63 -15 -70 3 -6 17 19 21 30 4z
m95 2 c-8 -5 -20 -7 -28 -4 -21 8 -15 13 15 13 20 0 23 -3 13 -9z m49 -5 c0
-2 -7 -7 -16 -10 -8 -3 -12 -2 -9 4 6 10 25 14 25 6z m535 -39 c7 -6 -1 -8
-24 -3 -18 3 -41 6 -50 6 -14 0 -14 2 -1 10 16 10 59 3 75 -13z m361 7 c18
-14 18 -14 -6 -3 -31 14 -36 19 -24 19 6 0 19 -7 30 -16z m-322 -25 c-6 -11
-24 -2 -24 11 0 5 7 7 15 4 8 -4 12 -10 9 -15z m649 -38 c32 -24 56 -45 53
-48 -3 -3 -12 1 -20 8 -8 8 -37 30 -65 49 -28 19 -51 39 -51 44 0 5 6 4 13 -1
6 -6 38 -29 70 -52z m-818 17 c6 -4 2 -8 -7 -8 -10 0 -18 7 -18 17 0 9 3 12 8
7 4 -5 12 -12 17 -16z m205 7 c0 -8 -2 -15 -4 -15 -2 0 -6 7 -10 15 -3 8 -1
15 4 15 6 0 10 -7 10 -15z m-773 -1 c-3 -3 -12 -4 -19 -1 -8 3 -5 6 6 6 11 1
17 -2 13 -5z m393 -14 c0 -5 -7 -7 -15 -4 -8 4 -15 8 -15 10 0 2 7 4 15 4 8 0
15 -4 15 -10z m253 -8 c19 -2 77 -27 77 -33 0 -4 9 -11 21 -14 11 -4 18 -9 15
-12 -3 -3 -17 2 -31 11 -14 9 -30 14 -35 11 -5 -3 -11 -1 -15 5 -3 5 -15 10
-26 10 -10 0 -19 5 -19 11 0 6 -7 9 -15 5 -8 -3 -15 -1 -15 5 0 6 -5 7 -12 3
-7 -4 -8 -3 -4 4 4 7 15 8 29 3 12 -5 25 -9 30 -9z m164 2 c-3 -3 -12 -4 -19
-1 -8 3 -5 6 6 6 11 1 17 -2 13 -5z m347 -2 c3 -5 -1 -9 -9 -9 -8 0 -12 4 -9
9 3 4 7 8 9 8 2 0 6 -4 9 -8z m-1174 -12 c0 -5 -8 -10 -17 -10 -15 0 -16 2 -3
10 19 12 20 12 20 0z m38 -27 c-10 -2 -18 -10 -18 -16 0 -7 -4 -6 -10 3 -8 12
-10 12 -10 1 0 -8 -3 -12 -6 -8 -12 12 8 27 34 26 17 -1 21 -3 10 -6z m49 1
c-3 -3 -12 -4 -19 -1 -8 3 -5 6 6 6 11 1 17 -2 13 -5z m1008 -12 c-3 -3 -11 0
-18 7 -9 10 -8 11 6 5 10 -3 15 -9 12 -12z m140 0 c-3 -3 -11 0 -18 7 -9 10
-8 11 6 5 10 -3 15 -9 12 -12z m-500 -20 c-3 -3 -11 0 -18 7 -9 10 -8 11 6 5
10 -3 15 -9 12 -12z m105 -7 c33 -19 21 -19 -21 0 -19 8 -27 14 -19 14 8 0 26
-6 40 -14z m137 9 c-3 -3 -12 -4 -19 -1 -8 3 -5 6 6 6 11 1 17 -2 13 -5z m593
-78 c80 -78 128 -136 111 -136 -6 0 -11 3 -11 8 0 11 -91 104 -127 130 -18 13
-42 37 -54 54 -33 46 -3 25 81 -56z m-325 64 c3 -6 -1 -7 -9 -4 -18 7 -21 14
-7 14 6 0 13 -4 16 -10z m55 -12 c0 -6 -6 -5 -15 2 -8 7 -15 14 -15 16 0 2 7
1 15 -2 8 -4 15 -11 15 -16z m-126 -24 c5 -14 -39 -13 -52 1 -4 4 -1 5 6 1 18
-11 14 5 -5 20 -15 11 -13 12 14 2 18 -7 35 -18 37 -24z m-284 17 c0 -5 10
-12 23 -14 21 -4 21 -4 1 -6 -12 0 -27 6 -34 14 -9 10 -9 15 -1 15 6 0 11 -4
11 -9z m-240 -11 c13 -9 13 -10 0 -10 -8 0 -22 5 -30 10 -13 9 -13 10 0 10 8
0 22 -5 30 -10z m701 -21 c28 -27 29 -30 9 -24 -17 5 -21 4 -15 -5 5 -9 4 -11
-4 -6 -6 4 -9 12 -5 17 3 6 -2 19 -12 30 -28 31 -8 22 27 -12z m-1121 -15 c0
-2 -24 -3 -52 -3 -52 2 -53 2 -13 8 37 6 65 4 65 -5z m395 6 c3 -5 1 -10 -4
-10 -6 0 -11 5 -11 10 0 6 2 10 4 10 3 0 8 -4 11 -10z m40 -29 c-6 -5 -25 10
-25 20 0 5 6 4 14 -3 8 -7 12 -15 11 -17z m546 -8 c13 -16 12 -17 -3 -4 -17
13 -22 21 -14 21 2 0 10 -8 17 -17z m43 -12 c-2 -3 -12 3 -22 13 -16 17 -16
18 5 5 12 -7 20 -15 17 -18z m-3104 15 c0 -2 -8 -10 -17 -17 -16 -13 -17 -12
-4 4 13 16 21 21 21 13z m3270 -25 c17 -15 30 -32 30 -36 0 -5 -13 3 -28 18
-16 15 -31 25 -34 22 -2 -3 -5 2 -5 10 0 20 3 19 37 -14z m-1214 -6 c-3 -8 -1
-15 4 -15 6 0 10 5 10 10 0 6 8 10 18 10 13 0 14 -2 4 -9 -8 -4 -13 -12 -13
-17 2 -21 -34 -8 -37 14 -2 12 2 22 8 22 7 0 10 -7 6 -15z m984 -10 c0 -8 -2
-15 -4 -15 -2 0 -6 7 -10 15 -3 8 -1 15 4 15 6 0 10 -7 10 -15z m-3119 -72
c-67 -109 -93 -162 -85 -175 4 -6 3 -8 -3 -5 -6 4 -30 -36 -57 -92 -122 -260
-186 -509 -222 -864 -3 -32 -7 -57 -10 -55 -7 8 16 220 37 343 34 190 101 401
184 582 55 118 186 343 200 343 2 0 -18 -35 -44 -77z m2569 61 c0 -2 -7 -4
-15 -4 -8 0 -15 4 -15 10 0 5 7 7 15 4 8 -4 15 -8 15 -10z m585 -13 c-6 -5
-25 10 -25 20 0 5 6 4 14 -3 8 -7 12 -15 11 -17z m981 4 c18 -25 18 -34 -2
-31 -16 3 -44 32 -44 47 0 14 33 2 46 -16z m-871 -15 c10 -11 16 -20 13 -20
-3 0 -13 9 -23 20 -10 11 -16 20 -13 20 3 0 13 -9 23 -20z m-1095 -10 c0 -5
-4 -10 -10 -10 -5 0 -10 5 -10 10 0 6 5 10 10 10 6 0 10 -4 10 -10z m40 -2 c0
-4 -7 -8 -15 -8 -8 0 -15 4 -15 8 0 5 7 9 15 9 8 0 15 -4 15 -9z m137 6 c-3
-3 -12 -4 -19 -1 -8 3 -5 6 6 6 11 1 17 -2 13 -5z m915 -71 c36 -35 63 -63 59
-63 -4 0 -22 16 -41 35 -18 18 -38 33 -44 32 -6 -1 -10 4 -9 10 2 7 -8 20 -22
29 -14 9 -25 21 -25 28 0 7 3 7 8 1 4 -5 37 -38 74 -72z m189 30 c18 -20 25
-31 14 -23 -36 26 -66 60 -52 60 2 0 19 -17 38 -37z m-1184 21 c-3 -3 -12 -4
-19 -1 -8 3 -5 6 6 6 11 1 17 -2 13 -5z m513 -9 c32 -16 38 -25 18 -25 -14 0
-68 39 -55 40 4 0 21 -7 37 -15z m-566 -7 c-3 -4 -9 -8 -15 -8 -5 0 -9 4 -9 8
0 5 7 9 15 9 8 0 12 -4 9 -9z m113 6 c-3 -3 -12 -4 -19 -1 -8 3 -5 6 6 6 11 1
17 -2 13 -5z m1347 -55 c21 -28 36 -52 34 -54 -2 -2 -23 20 -47 50 -23 30 -39
55 -34 55 4 -1 25 -23 47 -51z m-1153 -2 c-10 -9 -11 -8 -5 6 3 10 9 15 12 12
3 -3 0 -11 -7 -18z m1546 -3 c2 -13 1 -15 -4 -4 -3 8 -11 19 -17 23 -7 6 -6 7
4 4 8 -2 16 -12 17 -23z m-303 -20 c3 -8 2 -12 -4 -9 -6 3 -10 10 -10 16 0 14
7 11 14 -7z m156 -38 c0 -6 -7 -1 -15 10 -8 10 -15 23 -15 28 0 6 7 1 15 -10
8 -10 15 -23 15 -28z m-915 -27 c11 -13 -1 -6 -27 15 -27 21 -48 40 -48 43 0
8 54 -34 75 -58z m1045 55 c0 -8 -19 -13 -24 -6 -3 5 1 9 9 9 8 0 15 -2 15 -3z
m-1693 -30 c-6 -7 -97 8 -97 16 0 4 23 3 50 -3 28 -5 49 -11 47 -13z m153 6
c0 -5 -7 -7 -15 -4 -8 4 -15 8 -15 10 0 2 7 4 15 4 8 0 15 -4 15 -10z m235 -8
c-3 -3 -11 0 -18 7 -9 10 -8 11 6 5 10 -3 15 -9 12 -12z m-195 -8 c0 -2 -7 -4
-15 -4 -8 0 -15 4 -15 10 0 5 7 7 15 4 8 -4 15 -8 15 -10z m824 -7 c4 4 4 -1
0 -11 -5 -12 -4 -17 3 -13 6 4 19 -3 29 -14 19 -21 19 -21 0 -18 -10 2 -30 20
-45 39 -14 19 -19 29 -10 23 9 -7 19 -10 23 -6z m366 -8 c0 -5 -4 -9 -10 -9
-5 0 -10 7 -10 16 0 8 5 12 10 9 6 -3 10 -10 10 -16z m-137 -59 c-2 -3 -11 4
-18 15 -8 11 -19 25 -25 32 -5 7 -10 16 -10 20 0 4 14 -8 29 -27 16 -19 27
-37 24 -40z m-1073 40 c0 -5 -9 -6 -20 -3 -11 3 -20 9 -20 13 0 5 9 6 20 3 11
-3 20 -9 20 -13z m600 -87 c0 -9 -37 18 -65 48 -29 31 -28 31 18 -5 26 -21 47
-40 47 -43z m715 51 c9 -15 12 -23 6 -20 -15 10 -14 -7 1 -22 9 -9 9 -12 0
-12 -7 0 -12 6 -12 13 0 9 -2 9 -8 -1 -5 -8 -8 3 -8 28 1 22 2 40 2 40 1 0 9
-12 19 -26z m-1335 6 c8 -5 11 -10 5 -10 -5 0 -17 5 -25 10 -8 5 -10 10 -5 10
6 0 17 -5 25 -10z m1202 -30 c12 -21 13 -30 5 -34 -7 -3 6 -3 28 -1 22 2 31 2
20 -1 -11 -4 -25 -10 -32 -16 -11 -9 -26 5 -29 27 0 6 -2 16 -2 24 -1 7 -8 11
-15 8 -7 -3 -13 3 -13 13 0 25 18 15 38 -20z m306 9 c-3 -8 -7 -3 -11 10 -4
17 -3 21 5 13 5 -5 8 -16 6 -23z m206 20 c-3 -5 0 -18 6 -29 6 -11 8 -20 6
-20 -3 0 -12 13 -20 28 -13 24 -13 29 -1 29 8 0 12 -4 9 -8z m-1304 -29 c0
-15 -5 -12 -26 11 -19 22 -19 22 4 10 12 -6 22 -16 22 -21z m241 13 c13 -16
12 -17 -3 -4 -17 13 -22 21 -14 21 2 0 10 -8 17 -17z m-601 -3 c8 -5 11 -10 5
-10 -5 0 -17 5 -25 10 -8 5 -10 10 -5 10 6 0 17 -5 25 -10z m60 -36 c0 -2 -9
0 -20 6 -11 6 -20 13 -20 16 0 2 9 0 20 -6 11 -6 20 -13 20 -16z m971 9 c13
-16 12 -17 -3 -4 -10 7 -18 15 -18 17 0 8 8 3 21 -13z m-892 -19 c14 -12 -19
-1 -35 12 -18 14 -18 14 6 3 14 -6 27 -13 29 -15z m-24 -14 c3 -6 -1 -7 -9 -4
-18 7 -21 14 -7 14 6 0 13 -4 16 -10z m959 -43 c-7 -18 -24 -23 -24 -7 0 6 6
10 13 10 6 0 4 5 -5 11 -10 5 -18 17 -18 25 0 12 4 11 20 -4 13 -12 18 -25 14
-35z m16 43 c0 -5 -2 -10 -4 -10 -3 0 -8 5 -11 10 -3 6 -1 10 4 10 6 0 11 -4
11 -10z m-1045 -18 c-3 -3 -11 0 -18 7 -9 10 -8 11 6 5 10 -3 15 -9 12 -12z
m855 -42 c-10 -6 -10 -8 0 -12 9 -3 8 -9 -4 -21 -19 -19 -36 -22 -36 -7 0 6 5
9 11 8 6 -2 14 3 17 11 3 10 0 11 -9 5 -12 -6 -12 -5 -1 8 11 13 11 22 1 40
l-11 23 22 -24 c17 -17 20 -25 10 -31z m813 33 c-3 -7 -9 -10 -14 -7 -14 8
-11 21 5 21 8 0 12 -6 9 -14z m-864 -29 c4 3 8 -1 8 -9 0 -11 -4 -12 -14 -4
-7 6 -13 17 -12 23 0 7 2 6 6 -2 2 -6 8 -10 12 -8z m881 -29 c0 -5 -5 -3 -10
5 -5 8 -10 20 -10 25 0 6 5 3 10 -5 5 -8 10 -19 10 -25z m-1459 8 c13 -16 12
-17 -3 -4 -17 13 -22 21 -14 21 2 0 10 -8 17 -17z m214 -3 c10 -11 16 -20 13
-20 -3 0 -13 9 -23 20 -10 11 -16 20 -13 20 3 0 13 -9 23 -20z m283 -35 c-3
-3 -9 2 -12 12 -6 14 -5 15 5 6 7 -7 10 -15 7 -18z m-267 -20 c5 4 9 1 9 -4 0
-6 -4 -11 -9 -11 -13 0 -41 29 -41 43 0 6 7 1 16 -11 8 -12 20 -20 25 -17z
m1249 0 c0 -5 -5 -3 -10 5 -5 8 -10 20 -10 25 0 6 5 3 10 -5 5 -8 10 -19 10
-25z m-1317 -26 c9 6 17 8 20 4 8 -13 -16 -38 -38 -41 -15 -2 -17 0 -6 6 9 7
10 12 2 16 -6 4 -11 13 -11 19 0 8 4 7 9 -2 8 -12 12 -12 24 -2z m77 -49 c0
-5 -2 -10 -4 -10 -3 0 -8 5 -11 10 -3 6 -1 10 4 10 6 0 11 -4 11 -10z m99 -64
c0 -15 -2 -17 -6 -6 -3 8 -15 29 -26 45 l-21 30 27 -24 c15 -14 27 -34 26 -45z
m26 52 c5 4 5 1 1 -5 -10 -18 -23 -16 -30 3 -5 13 -4 14 7 6 8 -7 18 -8 22 -4z
m-55 -64 c0 -7 6 -15 13 -17 6 -3 2 -6 -10 -6 -13 -1 -23 -5 -23 -11 0 -5 -4
-10 -10 -10 -5 0 -10 7 -10 15 0 7 -8 18 -17 24 -10 5 -14 13 -9 18 5 4 11 2
13 -5 3 -6 10 -9 15 -6 7 4 8 2 4 -4 -4 -7 -2 -12 3 -12 14 0 14 27 1 35 -5 3
-10 11 -10 17 0 6 9 3 20 -7 11 -10 20 -24 20 -31z m1270 -79 c0 -5 -5 -3 -10
5 -5 8 -10 20 -10 25 0 6 5 3 10 -5 5 -8 10 -19 10 -25z m-4783 -622 c-3 -10
-5 -4 -5 12 0 17 2 24 5 18 2 -7 2 -21 0 -30z m4840 -645 c-3 -8 -6 -5 -6 6
-1 11 2 17 5 13 3 -3 4 -12 1 -19z m-4750 -90 c-3 -7 -5 -2 -5 12 0 14 2 19 5
13 2 -7 2 -19 0 -25z m4712 -47 c-7 -23 -14 -39 -16 -37 -3 2 1 23 8 45 7 23
14 39 16 37 3 -2 -1 -23 -8 -45z m-4683 -26 c9 -39 0 -30 -15 15 -6 19 -7 30
-2 25 5 -6 13 -23 17 -40z m1499 -5 c3 -5 1 -10 -4 -10 -6 0 -11 5 -11 10 0 6
2 10 4 10 3 0 8 -4 11 -10z m3145 -25 c0 -5 -5 -3 -10 5 -5 8 -10 20 -10 25 0
6 5 3 10 -5 5 -8 10 -19 10 -25z m-3270 -7 c0 -5 -4 -8 -10 -8 -5 0 -10 10
-10 23 0 18 2 19 10 7 5 -8 10 -18 10 -22z m3244 16 c3 -8 2 -12 -4 -9 -6 3
-10 1 -10 -6 0 -7 -2 -10 -5 -7 -5 5 4 38 10 38 2 0 6 -7 9 -16z m11 -110
c-49 -133 -170 -363 -255 -488 -237 -346 -555 -627 -915 -808 -503 -254 -983
-331 -1539 -248 -203 30 -511 134 -719 242 -81 42 -65 46 19 5 154 -76 181
-87 197 -82 8 4 31 0 49 -8 131 -58 339 -111 547 -139 74 -10 88 -14 61 -18
-19 -3 87 -5 237 -5 150 0 265 3 255 8 -9 4 8 5 38 2 40 -3 50 -2 35 5 -15 8
-5 9 35 5 33 -2 47 -1 35 4 -15 6 -6 10 35 15 30 4 107 20 170 37 154 40 151
39 145 50 -3 5 1 6 10 3 17 -7 137 34 131 45 -1 3 5 14 16 24 10 9 18 14 18
10 0 -5 5 -1 10 7 8 13 10 13 10 -1 0 -9 -10 -21 -22 -27 -48 -23 3 -11 56 14
57 26 77 41 30 24 -36 -14 -43 -12 -14 5 14 8 36 12 50 9 15 -3 33 2 45 12 20
16 20 16 0 9 -27 -9 -42 -13 -32 -8 4 3 5 9 2 14 -4 5 2 6 11 2 11 -4 15 -3
10 5 -3 6 -2 13 3 17 5 3 14 -2 19 -11 8 -15 13 -15 40 -3 17 7 28 17 26 21
-3 5 -1 7 4 6 13 -4 202 104 197 112 -2 4 2 7 9 7 7 0 26 10 44 23 29 22 30
24 14 37 -9 8 -11 11 -4 8 7 -4 23 1 35 12 l22 18 -19 -22 c-30 -36 -6 -26 53
22 30 24 59 41 64 38 6 -3 7 -1 3 6 -8 13 -19 8 -56 -23 -25 -21 -25 -21 -7 0
9 11 15 23 12 26 -3 3 2 11 12 19 11 9 14 10 9 2 -12 -20 5 -15 33 10 14 12
19 14 12 5 -7 -10 -10 -18 -5 -18 17 0 35 17 38 34 1 9 18 32 37 52 19 19 33
38 33 42 -2 11 45 64 59 66 20 3 38 17 32 26 -6 9 12 23 34 27 8 1 -10 -23
-39 -52 -29 -30 -57 -52 -61 -50 -4 3 -12 -2 -19 -10 -7 -8 -9 -15 -4 -15 4 0
-3 -11 -16 -25 -13 -14 -19 -25 -13 -25 23 0 277 266 267 281 -2 4 -22 -11
-44 -34 -34 -36 -39 -39 -35 -18 2 12 9 29 15 35 5 7 6 17 2 21 -4 5 -1 5 6 0
10 -5 11 -10 3 -18 -14 -14 -14 -30 -1 -22 19 12 47 80 44 105 -3 18 -2 21 5
10 5 -8 7 -19 4 -25 -2 -5 4 1 15 14 11 14 22 19 25 13 4 -5 0 -15 -8 -22 -16
-14 -20 -30 -7 -30 5 0 23 21 41 48 18 26 24 37 13 25 -38 -43 -45 -20 -8 24
24 29 26 33 26 59 0 8 5 12 10 9 11 -7 14 8 3 19 -12 11 -12 40 -1 53 12 14
32 7 22 -8 -3 -6 2 -16 11 -23 15 -11 15 -13 1 -25 -17 -14 -23 -36 -7 -26 10
6 61 94 61 104 0 3 -7 -2 -14 -12 -12 -16 -14 -16 -20 -2 -3 9 -10 14 -15 10
-17 -10 -22 13 -7 28 8 8 12 18 8 22 -4 4 -1 5 7 3 7 -1 16 3 19 11 2 8 0 11
-6 7 -6 -3 -4 7 4 24 16 32 28 41 17 13 -4 -10 -2 -14 5 -9 6 3 13 2 17 -4 4
-6 11 -8 17 -4 5 3 3 -7 -6 -24 -9 -17 -20 -32 -25 -34 -7 -2 -7 -9 -1 -18 7
-11 25 17 70 113 34 71 59 135 56 143 -4 10 -2 12 6 8 8 -5 9 -2 5 10 -4 9 -3
14 2 11 10 -5 26 33 18 41 -2 3 -11 -2 -20 -10 -13 -14 -16 -14 -21 0 -3 8 -2
12 4 9 6 -3 10 -2 10 4 0 5 9 8 20 6 19 -4 39 29 26 42 -3 4 -6 1 -6 -6 0 -7
-4 -9 -10 -6 -5 3 -10 0 -10 -7 0 -9 -3 -9 -10 2 -5 8 -10 20 -10 25 0 6 5 3
10 -5 6 -9 10 -10 10 -3 0 6 9 10 20 8 12 -2 21 3 25 16 4 11 9 18 11 16 3 -3
-11 -49 -31 -103z m-3079 71 c9 -8 11 -15 6 -15 -5 0 -15 7 -22 15 -7 8 -9 15
-6 15 4 0 14 -7 22 -15z m-126 -40 c0 -5 7 -1 15 9 8 11 15 16 15 10 0 -5 -9
-20 -20 -34 -12 -15 -18 -18 -14 -7 3 9 2 17 -3 17 -4 0 -14 9 -21 20 -12 19
-11 20 8 8 11 -7 20 -17 20 -23z m101 -12 c13 -16 12 -17 -3 -4 -17 13 -22 21
-14 21 2 0 10 -8 17 -17z m40 0 c13 -16 12 -17 -3 -4 -10 7 -18 15 -18 17 0 8
8 3 21 -13z m267 -37 c27 -19 30 -25 16 -30 -23 -9 -91 34 -72 45 19 12 20 12
56 -15z m-207 -13 c13 -16 12 -17 -3 -4 -10 7 -18 15 -18 17 0 8 8 3 21 -13z
m-224 -28 c0 -8 -4 -12 -9 -9 -5 3 -6 10 -3 15 9 13 12 11 12 -6z m3141 -41
c6 -1 12 3 12 9 0 5 3 8 6 5 3 -4 -1 -18 -8 -32 l-14 -26 -18 31 c-13 22 -14
29 -5 23 8 -5 20 -9 27 -10z m-2968 -40 c0 -3 -13 4 -30 16 -16 12 -30 24 -30
26 0 3 14 -4 30 -16 17 -12 30 -24 30 -26z m-583 -3 c0 -11 -5 -17 -9 -15 -11
7 -10 34 1 34 6 0 9 -9 8 -19z m3535 -6 c8 -14 8 -16 -2 -10 -10 6 -12 4 -7
-7 4 -11 0 -15 -11 -13 -9 1 -25 -2 -34 -7 -13 -6 -16 -5 -12 6 3 8 14 13 25
11 22 -4 23 -1 9 25 -13 25 18 21 32 -5z m-3072 -6 c0 -14 -17 -10 -23 5 -4
10 -1 13 9 9 7 -3 14 -9 14 -14z m310 1 c8 -5 11 -10 5 -10 -5 0 -17 5 -25 10
-8 5 -10 10 -5 10 6 0 17 -5 25 -10z m140 0 c8 -5 11 -10 5 -10 -5 0 -17 5
-25 10 -8 5 -10 10 -5 10 6 0 17 -5 25 -10z m-406 -15 c3 -8 1 -15 -4 -15 -6
0 -10 7 -10 15 0 8 2 15 4 15 2 0 6 -7 10 -15z m272 -23 c-7 -7 -46 9 -46 18
0 5 11 4 25 -2 14 -6 23 -13 21 -16z m-660 6 c4 -7 3 -8 -4 -4 -16 10 -15 -6
1 -24 10 -12 9 -12 -4 -2 -9 6 -19 8 -24 4 -4 -4 -2 3 4 16 13 25 17 27 27 10z
m844 -14 l25 -15 -25 7 c-14 3 -29 10 -34 15 -16 14 6 10 34 -7z m128 -11 c34
-9 61 -18 58 -20 -7 -7 -146 29 -153 39 -4 8 0 9 13 4 10 -4 47 -15 82 -23z
m-1818 7 c0 -5 -4 -10 -10 -10 -5 0 -10 5 -10 10 0 6 5 10 10 10 6 0 10 -4 10
-10z m1226 -17 c-7 -7 -26 7 -26 19 0 6 6 6 15 -2 9 -7 13 -15 11 -17z m3017
10 c-3 -7 -6 -13 -8 -13 -2 0 -5 6 -8 13 -3 8 1 14 8 14 7 0 11 -6 8 -14z
m-4183 -9 c0 -8 -5 -12 -10 -9 -6 4 -8 11 -5 16 9 14 15 11 15 -7z m1197 -3
c0 -11 -5 -18 -9 -15 -4 3 -5 11 -1 19 7 21 12 19 10 -4z m-1087 -6 c0 -8 -2
-15 -4 -15 -2 0 -6 7 -10 15 -3 8 -1 15 4 15 6 0 10 -7 10 -15z m730 -8 c0 -2
-8 -3 -18 -3 -10 0 -19 6 -19 13 0 8 6 9 19 2 10 -5 18 -11 18 -12z m397 10
c0 -8 -6 -14 -14 -14 -9 0 -10 4 -2 14 6 7 12 13 14 13 1 0 2 -6 2 -13z m450
7 c-3 -3 -12 -4 -19 -1 -8 3 -5 6 6 6 11 1 17 -2 13 -5z m-40 -20 c-3 -3 -12
-4 -19 -1 -8 3 -5 6 6 6 11 1 17 -2 13 -5z m-327 -34 c0 -14 -9 -12 -26 4 -20
21 -17 28 6 16 11 -6 20 -15 20 -20z m467 24 c-3 -3 -12 -4 -19 -1 -8 3 -5 6
6 6 11 1 17 -2 13 -5z m136 -1 c-7 -2 -19 -2 -25 0 -7 3 -2 5 12 5 14 0 19 -2
13 -5z m-1896 -25 c-3 -8 -6 -5 -6 6 -1 11 2 17 5 13 3 -3 4 -12 1 -19z m93 7
c0 -8 -2 -15 -4 -15 -2 0 -6 7 -10 15 -3 8 -1 15 4 15 6 0 10 -7 10 -15z
m1733 8 c-7 -2 -19 -2 -25 0 -7 3 -2 5 12 5 14 0 19 -2 13 -5z m-1852 -30 c-8
-15 -10 -15 -11 -2 0 17 10 32 18 25 2 -3 -1 -13 -7 -23z m1380 11 c55 -25 63
-30 67 -42 2 -7 -2 -10 -12 -6 -9 3 -13 10 -10 15 3 5 -3 9 -14 9 -28 0 -82
20 -82 31 0 13 12 11 51 -7z m205 0 c18 -14 18 -14 -6 -3 -31 14 -36 19 -24
19 6 0 19 -7 30 -16z m-955 -41 c13 -16 12 -17 -3 -4 -10 7 -18 15 -18 17 0 8
8 3 21 -13z m754 -3 c17 -11 26 -20 20 -20 -5 0 -23 9 -40 20 -16 11 -25 20
-20 20 6 0 24 -9 40 -20z m182 14 c-3 -3 -12 -4 -19 -1 -8 3 -5 6 6 6 11 1 17
-2 13 -5z m-12 -34 c13 -6 15 -9 5 -9 -8 0 -22 4 -30 9 -18 12 -2 12 25 0z
m265 -10 c-14 -9 -62 -1 -55 9 2 4 18 6 36 3 18 -3 26 -8 19 -12z m-385 0 c3
-5 1 -10 -4 -10 -6 0 -11 5 -11 10 0 6 2 10 4 10 3 0 8 -4 11 -10z m2665 -11
c0 -5 -4 -9 -10 -9 -5 0 -10 7 -10 16 0 8 5 12 10 9 6 -3 10 -10 10 -16z
m-4040 -10 c0 -6 -4 -7 -10 -4 -5 3 -10 11 -10 16 0 6 5 7 10 4 6 -3 10 -11
10 -16z m200 -19 c10 -19 10 -20 -9 -8 -11 6 -17 16 -15 20 8 12 12 10 24 -12z
m1275 10 c-3 -5 -12 -10 -18 -10 -7 0 -6 4 3 10 19 12 23 12 15 0z m335 -20
c0 -3 -27 -2 -59 4 -33 5 -58 12 -56 16 5 7 115 -12 115 -20z m-1494 9 c3 -6
1 -16 -5 -22 -9 -9 -10 -7 -5 7 5 13 4 17 -4 12 -7 -4 -12 -2 -12 3 0 14 17
14 26 0z m1572 -14 c-3 -3 -9 2 -12 12 -6 14 -5 15 5 6 7 -7 10 -15 7 -18z
m-1619 1 c9 -11 9 -16 0 -22 -8 -4 -9 -3 -5 4 4 7 2 12 -3 12 -6 0 -11 5 -11
10 0 14 5 13 19 -4z m1280 -2 c12 -11 -8 -10 -39 2 l-35 14 35 -6 c19 -4 37
-8 39 -10z m-274 -14 c17 -11 26 -20 22 -20 -11 0 -67 29 -67 35 0 10 16 4 45
-15z m588 13 c-7 -2 -21 -2 -30 0 -10 3 -4 5 12 5 17 0 24 -2 18 -5z m84 1
c-3 -3 -12 -4 -19 -1 -8 3 -5 6 6 6 11 1 17 -2 13 -5z m46 -1 c-7 -2 -19 -2
-25 0 -7 3 -2 5 12 5 14 0 19 -2 13 -5z m-516 -9 c-3 -3 -12 -4 -19 -1 -8 3
-5 6 6 6 11 1 17 -2 13 -5z m103 -4 c0 -5 -4 -10 -10 -10 -5 0 -10 5 -10 10 0
6 5 10 10 10 6 0 10 -4 10 -10z m-56 -9 c4 -5 -3 -7 -14 -4 -23 6 -26 13 -6
13 8 0 17 -4 20 -9z m-47 -7 c-3 -3 -12 -4 -19 -1 -8 3 -5 6 6 6 11 1 17 -2
13 -5z m160 0 c-3 -3 -12 -4 -19 -1 -8 3 -5 6 6 6 11 1 17 -2 13 -5z m78 -14
c17 -4 23 -9 15 -10 -8 -1 -19 -1 -25 0 -5 2 -19 4 -29 5 -11 1 -22 8 -24 15
-3 9 1 11 14 5 11 -4 33 -11 49 -15z m2241 -2 c4 -7 3 -8 -4 -4 -7 4 -12 2
-12 -5 0 -7 -3 -10 -6 -6 -6 5 3 27 11 27 2 0 7 -5 11 -12z m-2121 -8 c21 0
35 -4 30 -8 -14 -12 -115 -2 -115 10 0 6 10 8 23 4 12 -3 40 -6 62 -6z m-131
-26 c9 -3 13 -10 10 -15 -3 -5 -14 -5 -25 1 -11 6 -24 8 -29 5 -5 -3 -11 -1
-15 5 -7 11 33 14 59 4z m56 -14 c12 -8 11 -10 -7 -10 -13 0 -23 5 -23 10 0
13 11 13 30 0z m68 -13 c-8 -15 -12 -17 -18 -6 -11 16 -5 26 14 26 12 0 13 -5
4 -20z m49 1 c-3 -8 -6 -5 -6 6 -1 11 2 17 5 13 3 -3 4 -12 1 -19z m53 2 c0
-5 -9 -6 -20 -3 -11 3 -17 9 -15 14 7 10 35 1 35 -11z m1984 12 c3 -5 -1 -9
-9 -9 -8 0 -12 4 -9 9 3 4 7 8 9 8 2 0 6 -4 9 -8z m-2214 -41 c0 -5 -9 -7 -20
-4 -11 3 -20 7 -20 9 0 2 9 4 20 4 11 0 20 -4 20 -9z m317 3 c-3 -3 -12 -4
-19 -1 -8 3 -5 6 6 6 11 1 17 -2 13 -5z m-190 -26 c-3 -8 -6 -5 -6 6 -1 11 2
17 5 13 3 -3 4 -12 1 -19z m89 -11 c4 -4 -4 -6 -19 -5 -14 1 -24 5 -21 9 5 9
31 6 40 -4z m57 -4 c-3 -7 -6 -13 -8 -13 -2 0 -5 6 -8 13 -3 8 1 14 8 14 7 0
11 -6 8 -14z m-300 -50 c-7 -2 -19 -2 -25 0 -7 3 -2 5 12 5 14 0 19 -2 13 -5z
m492 -20 c-11 -3 -23 -10 -27 -17 -5 -7 -8 -5 -8 7 0 12 7 17 28 16 21 -1 22
-2 7 -6z m12 -19 c-3 -3 -12 -4 -19 -1 -8 3 -5 6 6 6 11 1 17 -2 13 -5z m-692
-19 c40 -18 21 -18 -35 -1 -32 10 -38 15 -20 15 14 0 39 -6 55 -14z m2299 -1
c3 -8 2 -12 -4 -9 -6 3 -10 10 -10 16 0 14 7 11 14 -7z m-2217 0 c-3 -3 -12
-4 -19 -1 -8 3 -5 6 6 6 11 1 17 -2 13 -5z m156 -81 c-7 -2 -19 -2 -25 0 -7 3
-2 5 12 5 14 0 19 -2 13 -5z m-146 -9 c-3 -3 -12 -4 -19 -1 -8 3 -5 6 6 6 11
1 17 -2 13 -5z m128 -14 c4 -6 -6 -10 -22 -9 -25 0 -26 1 -8 9 11 5 21 9 22 9
1 1 5 -3 8 -9z m155 6 c0 -11 -19 -15 -25 -6 -3 5 1 10 9 10 9 0 16 -2 16 -4z
m47 -14 c15 12 15 11 3 -9 -20 -31 -56 -19 -43 15 5 12 8 11 15 -2 8 -14 12
-15 25 -4z m200 12 c-3 -3 -12 -4 -19 -1 -8 3 -5 6 6 6 11 1 17 -2 13 -5z
m-347 -20 c0 -2 -9 -4 -20 -4 -11 0 -20 4 -20 9 0 5 9 7 20 4 11 -3 20 -7 20
-9z m24 1 c3 -8 1 -15 -4 -15 -6 0 -10 7 -10 15 0 8 2 15 4 15 2 0 6 -7 10
-15z m71 -15 c3 -6 -1 -7 -9 -4 -18 7 -21 14 -7 14 6 0 13 -4 16 -10z m124 -7
c0 -10 -3 -13 -5 -6 -3 6 -18 9 -37 7 -24 -4 -28 -2 -17 5 25 17 60 13 59 -6z
m-1684 -93 c100 -94 196 -168 337 -260 68 -44 120 -80 115 -80 -10 0 -160 94
-227 143 -94 69 -212 168 -275 231 -75 75 -44 54 50 -34z m1230 75 c54 -17 33
-18 -30 -1 -27 8 -41 14 -30 14 11 0 38 -5 60 -13z m-1110 -64 c-3 -3 -18 8
-33 23 l-27 29 32 -23 c18 -13 30 -26 28 -29z m1288 28 c37 -6 66 -14 63 -16
-6 -7 -196 27 -196 34 0 3 15 3 33 -1 17 -3 63 -10 100 -17z m347 5 c0 -2 -44
-3 -97 -2 l-98 2 75 5 c71 6 120 3 120 -5z m-473 -20 c-3 -3 -12 -4 -19 -1 -8
3 -5 6 6 6 11 1 17 -2 13 -5z m90 -20 c-3 -3 -12 -4 -19 -1 -8 3 -5 6 6 6 11
1 17 -2 13 -5z m-1203 -30 c5 -14 4 -15 -9 -4 -17 14 -19 20 -6 20 5 0 12 -7
15 -16z m1369 9 c-7 -2 -19 -2 -25 0 -7 3 -2 5 12 5 14 0 19 -2 13 -5z m-243
-13 c0 -5 -7 -7 -15 -4 -8 4 -15 8 -15 10 0 2 7 4 15 4 8 0 15 -4 15 -10z m47
-6 c-3 -3 -12 -4 -19 -1 -8 3 -5 6 6 6 11 1 17 -2 13 -5z m-1136 -21 c13 -16
12 -17 -3 -4 -10 7 -18 15 -18 17 0 8 8 3 21 -13z m1209 7 c0 -12 -8 -12 -35
0 -18 8 -17 9 8 9 15 1 27 -3 27 -9z m443 -7 c-7 -2 -19 -2 -25 0 -7 3 -2 5
12 5 14 0 19 -2 13 -5z m-306 -9 c-3 -3 -12 -4 -19 -1 -8 3 -5 6 6 6 11 1 17
-2 13 -5z m403 2 c0 -2 -7 -7 -16 -10 -8 -3 -12 -2 -9 4 6 10 25 14 25 6z
m-1689 -20 c8 4 9 3 5 -4 -4 -7 10 -22 34 -38 22 -15 40 -29 40 -31 0 -7 -54
27 -85 55 -17 15 -25 23 -18 19 7 -5 18 -5 24 -1z m983 -27 c5 -4 -8 -6 -30
-2 -21 3 -43 10 -49 15 -6 6 5 7 30 3 22 -4 44 -11 49 -16z m81 -9 c13 -5 14
-9 5 -9 -8 0 -24 4 -35 9 -13 5 -14 9 -5 9 8 0 24 -4 35 -9z m-208 -16 c-3 -3
-12 -4 -19 -1 -8 3 -5 6 6 6 11 1 17 -2 13 -5z m380 -10 c-3 -3 -12 -4 -19 -1
-8 3 -5 6 6 6 11 1 17 -2 13 -5z m91 -9 c10 -9 -33 -5 -48 5 -11 8 -8 9 14 6
16 -3 31 -8 34 -11z m-391 -1 c-3 -3 -12 -4 -19 -1 -8 3 -5 6 6 6 11 1 17 -2
13 -5z m-80 -10 c-3 -3 -12 -4 -19 -1 -8 3 -5 6 6 6 11 1 17 -2 13 -5z m183
-5 c0 -4 -9 -7 -19 -6 -11 0 -18 4 -16 7 6 9 35 8 35 -1z m99 -3 c-2 -2 -20
-6 -39 -10 -25 -4 -31 -3 -20 4 14 9 69 15 59 6z m-983 -27 c19 -11 34 -23 34
-26 0 -4 -62 30 -79 44 -16 12 18 -1 45 -18z m797 14 c-7 -2 -21 -2 -30 0 -10
3 -4 5 12 5 17 0 24 -2 18 -5z m711 -2 c4 -5 -3 -7 -14 -4 -23 6 -26 13 -6 13
8 0 17 -4 20 -9z m-667 -7 c-3 -3 -12 -4 -19 -1 -8 3 -5 6 6 6 11 1 17 -2 13
-5z m156 -1 c-7 -2 -19 -2 -25 0 -7 3 -2 5 12 5 14 0 19 -2 13 -5z m445 -5
c-3 -7 -32 -12 -79 -14 l-74 -2 64 8 c34 5 68 11 75 14 17 7 18 7 14 -6z
m-483 -8 c14 -7 8 -8 -20 -3 -22 3 -42 7 -44 9 -9 8 45 2 64 -6z m522 4 c-3
-3 -12 -4 -19 -1 -8 3 -5 6 6 6 11 1 17 -2 13 -5z m224 -3 c4 7 11 10 16 6 9
-9 -17 -28 -29 -21 -4 3 -8 11 -7 17 0 8 3 7 6 -2 4 -11 7 -11 14 0z m859 5
c0 -3 -15 -14 -32 -26 l-33 -22 30 26 c31 27 35 29 35 22z m-2495 -44 c-3 -3
-11 0 -18 7 -9 10 -8 11 6 5 10 -3 15 -9 12 -12z m2385 1 c0 -5 -12 -9 -27
-10 -19 -1 -22 1 -12 8 17 11 39 12 39 2z m32 -8 c0 -5 -5 -10 -12 -12 -7 -1
-6 0 1 4 8 4 7 8 -2 15 -11 8 -11 9 -1 6 8 -2 14 -8 14 -13z m-62 -21 c0 -2
-9 -4 -20 -4 -11 0 -20 4 -20 9 0 5 9 7 20 4 11 -3 20 -7 20 -9z m-1697 -11
c-7 -2 -21 -2 -30 0 -10 3 -4 5 12 5 17 0 24 -2 18 -5z m817 -2 c0 -5 -9 -7
-20 -4 -11 3 -20 7 -20 9 0 2 9 4 20 4 11 0 20 -4 20 -9z m-483 -7 c-3 -3 -12
-4 -19 -1 -8 3 -5 6 6 6 11 1 17 -2 13 -5z m396 -1 c-7 -2 -19 -2 -25 0 -7 3
-2 5 12 5 14 0 19 -2 13 -5z m927 -2 c0 -5 -9 -7 -20 -4 -11 3 -20 7 -20 9 0
2 9 4 20 4 11 0 20 -4 20 -9z m40 5 c0 -3 -4 -8 -10 -11 -5 -3 -10 -1 -10 4 0
6 5 11 10 11 6 0 10 -2 10 -4z m-1557 -13 c-7 -2 -19 -2 -25 0 -7 3 -2 5 12 5
14 0 19 -2 13 -5z m310 0 c-13 -2 -33 -2 -45 0 -13 2 -3 4 22 4 25 0 35 -2 23
-4z m100 0 c-7 -2 -21 -2 -30 0 -10 3 -4 5 12 5 17 0 24 -2 18 -5z m239 -20
c-3 -16 -7 -22 -10 -14 -4 11 -6 11 -13 0 -7 -12 -9 -11 -9 1 0 10 -3 11 -8 4
-4 -8 -21 -9 -47 -5 l-40 7 47 8 c26 4 50 11 53 17 14 21 32 9 27 -18z m-575
1 c-3 -3 -12 -4 -19 -1 -8 3 -5 6 6 6 11 1 17 -2 13 -5z m189 -8 c12 3 24 2
27 -3 6 -9 -58 -15 -90 -8 -13 3 -23 9 -23 14 0 6 13 6 32 1 17 -5 41 -7 54
-4z m-103 -3 c-7 -2 -21 -2 -30 0 -10 3 -4 5 12 5 17 0 24 -2 18 -5z m311 -1
c2 -4 -20 -8 -50 -9 -31 -2 -53 1 -50 5 5 9 94 13 100 4z m911 -11 c3 -6 -3
-15 -14 -20 -25 -14 -41 -14 -21 -1 13 9 13 10 0 10 -13 0 -13 1 0 10 19 12
27 12 35 1z m-585 -31 c13 -9 13 -10 0 -10 -8 0 -22 5 -30 10 -13 9 -13 10 0
10 8 0 22 -5 30 -10z m417 -56 c-3 -3 -12 -4 -19 -1 -8 3 -5 6 6 6 11 1 17 -2
13 -5z m-334 -18 c8 -19 -18 -42 -29 -25 -4 8 -3 9 4 5 7 -4 12 -2 12 3 0 6
-6 11 -12 11 -9 0 -8 4 2 10 19 12 17 13 23 -4z"/>
<path d="M2040 4900 c0 -5 7 -7 15 -4 8 4 15 8 15 10 0 2 -7 4 -15 4 -8 0 -15
-4 -15 -10z"/>
<path d="M1755 4890 c3 -5 11 -10 16 -10 6 0 7 5 4 10 -3 6 -11 10 -16 10 -6
0 -7 -4 -4 -10z"/>
<path d="M2003 4865 c0 -7 6 -11 14 -8 7 3 13 6 13 8 0 2 -6 5 -13 8 -8 3 -14
-1 -14 -8z"/>
<path d="M1965 4860 c-3 -5 -1 -10 4 -10 6 0 11 5 11 10 0 6 -2 10 -4 10 -3 0
-8 -4 -11 -10z"/>
<path d="M2125 4849 c-3 -4 -2 -10 3 -13 11 -7 52 4 52 14 0 10 -49 10 -55 -1z"/>
<path d="M2086 4835 c24 -18 35 -19 28 -2 -2 7 -14 13 -25 14 -21 2 -21 1 -3
-12z"/>
<path d="M1968 4813 c7 -3 16 -2 19 1 4 3 -2 6 -13 5 -11 0 -14 -3 -6 -6z"/>
<path d="M2041 4804 c0 -11 3 -14 6 -6 3 7 2 16 -1 19 -3 4 -6 -2 -5 -13z"/>
<path d="M2125 4780 c-3 -6 1 -7 9 -4 18 7 21 14 7 14 -6 0 -13 -4 -16 -10z"/>
<path d="M2118 4753 c7 -3 16 -2 19 1 4 3 -2 6 -13 5 -11 0 -14 -3 -6 -6z"/>
<path d="M2245 4720 c3 -5 8 -10 11 -10 2 0 4 5 4 10 0 6 -5 10 -11 10 -5 0
-7 -4 -4 -10z"/>
<path d="M2137 4649 c-9 -6 -22 -7 -27 -4 -6 3 -10 1 -10 -5 0 -11 47 -6 59 6
10 10 -6 12 -22 3z"/>
<path d="M2208 4603 c6 -2 18 -2 25 0 6 3 1 5 -13 5 -14 0 -19 -2 -12 -5z"/>
<path d="M2203 4583 c9 -2 23 -2 30 0 6 3 -1 5 -18 5 -16 0 -22 -2 -12 -5z"/>
<path d="M1780 4570 c-8 -5 -10 -10 -5 -10 6 0 17 5 25 10 8 5 11 10 5 10 -5
0 -17 -5 -25 -10z"/>
<path d="M2220 4482 c0 -5 7 -9 15 -9 8 0 15 4 15 9 0 4 -7 8 -15 8 -8 0 -15
-4 -15 -8z"/>
<path d="M2313 4323 c9 -2 23 -2 30 0 6 3 -1 5 -18 5 -16 0 -22 -2 -12 -5z"/>
<path d="M1217 4228 c-31 -31 -31 -32 -2 -8 16 14 34 28 40 32 5 5 6 8 2 8 -4
0 -22 -15 -40 -32z"/>
<path d="M4290 4257 c0 -2 14 -16 32 -33 31 -29 31 -29 12 -2 -16 23 -44 45
-44 35z"/>
<path d="M2358 4243 c7 -3 16 -2 19 1 4 3 -2 6 -13 5 -11 0 -14 -3 -6 -6z"/>
<path d="M1064 4088 c-55 -57 -126 -136 -158 -176 -61 -78 -200 -291 -194
-297 2 -3 24 28 48 68 73 120 179 263 250 337 3 3 41 43 85 88 44 45 77 82 74
82 -3 0 -50 -46 -105 -102z"/>
<path d="M2278 4173 c7 -3 16 -2 19 1 4 3 -2 6 -13 5 -11 0 -14 -3 -6 -6z"/>
<path d="M1945 4104 c-27 -13 -39 -21 -25 -18 29 7 100 43 85 43 -5 0 -32 -11
-60 -25z"/>
<path d="M2425 4080 c-3 -6 1 -7 9 -4 18 7 21 14 7 14 -6 0 -13 -4 -16 -10z"/>
<path d="M1870 4070 c-9 -6 -10 -10 -3 -10 6 0 15 5 18 10 8 12 4 12 -15 0z"/>
<path d="M1825 4050 c-3 -6 1 -7 9 -4 18 7 21 14 7 14 -6 0 -13 -4 -16 -10z"/>
<path d="M2355 4040 c-3 -5 1 -10 9 -10 8 0 18 5 21 10 3 6 -1 10 -9 10 -8 0
-18 -4 -21 -10z"/>
<path d="M2305 4030 c-3 -6 1 -7 9 -4 18 7 21 14 7 14 -6 0 -13 -4 -16 -10z"/>
<path d="M1329 3983 l-34 -38 38 34 c34 33 42 41 34 41 -2 0 -19 -17 -38 -37z"/>
<path d="M2570 3970 c0 -5 7 -10 15 -10 8 0 15 5 15 10 0 6 -7 10 -15 10 -8 0
-15 -4 -15 -10z"/>
<path d="M1275 3940 c-3 -5 -1 -10 4 -10 6 0 11 5 11 10 0 6 -2 10 -4 10 -3 0
-8 -4 -11 -10z"/>
<path d="M2410 3930 l-35 -7 38 -2 c20 0 37 4 37 9 0 6 -1 9 -2 9 -2 -1 -19
-5 -38 -9z"/>
<path d="M2510 3909 c0 -5 5 -7 10 -4 6 3 10 8 10 11 0 2 -4 4 -10 4 -5 0 -10
-5 -10 -11z"/>
<path d="M1199 3853 l-34 -38 38 34 c34 33 42 41 34 41 -2 0 -19 -17 -38 -37z"/>
<path d="M1493 3818 c-105 -96 -229 -238 -268 -308 -14 -27 10 2 56 65 52 72
196 223 262 276 27 22 45 39 40 39 -5 0 -45 -33 -90 -72z"/>
<path d="M2565 3880 c3 -5 13 -10 21 -10 8 0 14 5 14 10 0 6 -9 10 -21 10 -11
0 -17 -4 -14 -10z"/>
<path d="M1134 3781 c-46 -58 -76 -101 -72 -101 7 0 100 121 96 125 -2 1 -12
-9 -24 -24z"/>
<path d="M4696 3794 c-4 -9 -4 -19 -1 -22 3 -3 5 0 5 7 0 7 4 9 10 6 6 -3 7 1
4 9 -8 20 -10 20 -18 0z"/>
<path d="M2538 3763 c12 -2 32 -2 45 0 12 2 2 4 -23 4 -25 0 -35 -2 -22 -4z"/>
<path d="M2511 3736 c2 -2 58 -6 124 -9 66 -3 109 -2 95 3 -24 8 -228 14 -219
6z"/>
<path d="M2768 3713 c6 -2 18 -2 25 0 6 3 1 5 -13 5 -14 0 -19 -2 -12 -5z"/>
<path d="M2558 3693 c7 -3 16 -2 19 1 4 3 -2 6 -13 5 -11 0 -14 -3 -6 -6z"/>
<path d="M2710 3690 c-8 -5 -10 -10 -5 -10 6 0 17 5 25 10 8 5 11 10 5 10 -5
0 -17 -5 -25 -10z"/>
<path d="M2908 3693 c7 -3 16 -2 19 1 4 3 -2 6 -13 5 -11 0 -14 -3 -6 -6z"/>
<path d="M2796 3677 c2 -7 21 -14 41 -14 19 -1 38 -5 42 -10 3 -4 15 -10 26
-11 28 -5 103 -41 86 -42 -11 0 -9 -4 5 -15 26 -20 14 -19 -47 5 -28 12 -54
19 -56 16 -3 -2 6 -7 19 -11 13 -4 50 -21 82 -36 67 -32 100 -39 46 -9 -19 11
-29 19 -23 20 7 0 27 -9 45 -20 38 -23 62 -26 34 -5 -11 8 -15 15 -9 15 13 0
39 -30 27 -30 -12 -1 38 -39 50 -40 5 0 -1 12 -15 27 l-24 26 33 -23 c20 -15
28 -26 21 -31 -8 -4 -2 -13 15 -24 15 -10 24 -20 21 -23 -3 -3 -15 4 -28 15
-31 29 -108 75 -114 69 -3 -2 12 -14 34 -25 48 -26 102 -71 85 -71 -7 0 -10
-5 -6 -11 4 -8 9 -8 13 -1 8 14 47 8 44 -6 -1 -5 5 -16 14 -24 14 -11 16 -11
8 1 -5 10 -4 12 4 7 6 -4 9 -11 6 -15 -2 -5 7 -18 20 -31 13 -13 23 -26 21
-29 -3 -4 18 -31 45 -61 28 -30 47 -46 43 -35 -7 18 -6 19 12 5 17 -14 18 -14
6 1 -10 13 -10 18 1 28 8 6 16 8 19 5 3 -3 5 6 4 19 0 14 -4 23 -8 21 -3 -2
-18 10 -32 28 -14 18 -26 29 -26 24 0 -5 8 -18 18 -29 13 -15 14 -21 4 -24
-10 -4 -9 -9 4 -24 18 -21 6 -27 -14 -7 -16 16 -16 -4 1 -22 6 -8 2 -6 -11 5
-17 14 -19 21 -10 27 7 4 10 8 6 9 -5 1 -12 3 -18 4 -5 1 -14 3 -20 4 -5 0 -7
8 -3 16 5 14 7 14 23 0 20 -18 30 -19 30 -2 0 7 -20 33 -45 57 -25 24 -45 39
-45 33 0 -7 10 -19 22 -27 12 -9 17 -16 11 -16 -7 0 -15 5 -18 10 -4 6 -12 7
-18 4 -7 -4 -9 -3 -4 1 4 5 -3 19 -15 32 -12 13 -16 23 -9 23 7 0 10 4 6 10
-3 5 -11 7 -18 5 -7 -3 -25 7 -42 21 -17 15 -22 23 -12 20 30 -10 18 8 -26 35
-89 56 -225 121 -301 145 -93 28 -87 27 -80 11z m249 -93 c20 -8 35 -17 33
-20 -6 -5 -78 24 -78 31 0 7 4 6 45 -11z m383 -309 c-3 -3 -9 2 -12 12 -6 14
-5 15 5 6 7 -7 10 -15 7 -18z"/>
<path d="M2598 3673 c7 -3 16 -2 19 1 4 3 -2 6 -13 5 -11 0 -14 -3 -6 -6z"/>
<path d="M2748 3673 c7 -3 16 -2 19 1 4 3 -2 6 -13 5 -11 0 -14 -3 -6 -6z"/>
<path d="M2700 3666 c0 -2 7 -7 16 -10 8 -3 12 -2 9 4 -6 10 -25 14 -25 6z"/>
<path d="M2748 3653 c7 -3 16 -2 19 1 4 3 -2 6 -13 5 -11 0 -14 -3 -6 -6z"/>
<path d="M2930 3616 c0 -2 7 -7 16 -10 8 -3 12 -2 9 4 -6 10 -25 14 -25 6z"/>
<path d="M4176 3591 c-4 -7 -5 -15 -2 -18 9 -9 19 4 14 18 -4 11 -6 11 -12 0z"/>
<path d="M2416 3568 c-357 -79 -619 -293 -745 -610 -73 -181 -87 -414 -37
-602 30 -117 96 -256 161 -343 26 -34 44 -67 40 -72 -7 -13 64 -93 76 -85 5 3
8 2 7 -3 -11 -34 275 -197 368 -210 24 -3 49 -12 55 -19 14 -17 33 -19 23 -2
-5 8 -2 9 12 3 33 -14 167 -25 234 -19 249 22 472 121 646 286 93 88 154 173
209 291 68 145 89 244 89 417 0 205 -36 333 -144 521 -28 48 -50 92 -50 98 0
15 -12 29 -95 113 -70 71 -70 83 0 20 20 -19 39 -32 41 -29 9 8 -95 89 -106
82 -6 -4 -18 -1 -26 6 -10 8 -12 14 -4 19 7 4 -19 26 -62 52 -95 59 -118 71
-126 64 -3 -3 1 -6 9 -7 8 0 6 -3 -5 -8 -13 -5 -53 3 -110 21 -123 39 -324 46
-460 16z m669 -84 c41 -25 75 -47 75 -49 0 -2 -9 -3 -19 -2 -11 0 -18 4 -15 8
7 12 -65 49 -84 43 -14 -5 -15 -4 -2 5 8 6 10 11 4 11 -12 0 -53 29 -42 30 4
0 41 -21 83 -46z m-875 -108 c0 -2 -7 -7 -16 -10 -8 -3 -12 -2 -9 4 6 10 25
14 25 6z m-110 -9 c0 -2 -15 -13 -32 -26 l-33 -22 28 25 c26 24 37 31 37 23z
m643 -43 c224 -51 440 -230 523 -435 34 -82 64 -228 64 -305 0 -235 -129 -472
-335 -616 -112 -78 -211 -108 -377 -115 -146 -6 -224 8 -346 63 -95 43 -154
85 -224 159 -203 212 -264 528 -156 805 82 211 277 381 502 440 91 24 251 26
349 4z m-776 -69 c-36 -36 -89 -100 -117 -143 -59 -88 -69 -100 -47 -57 37 73
200 265 225 265 3 0 -24 -29 -61 -65z m103 42 c0 -1 -35 -33 -77 -71 l-78 -68
74 71 c69 66 81 76 81 68z m-194 -205 c-17 -16 -18 -16 -5 5 7 12 15 20 18 17
3 -2 -3 -12 -13 -22z m-105 -119 c-12 -20 -14 -14 -5 12 4 9 9 14 11 11 3 -2
0 -13 -6 -23z m32 -8 c-9 -19 -18 -33 -21 -31 -4 5 26 66 33 66 3 0 -3 -16
-12 -35z m-52 -42 c-12 -20 -14 -14 -5 12 4 9 9 14 11 11 3 -2 0 -13 -6 -23z
m0 -100 c-12 -20 -14 -14 -5 12 4 9 9 14 11 11 3 -2 0 -13 -6 -23z m-33 -14
c-6 -16 -12 -28 -14 -26 -5 5 13 57 20 57 3 0 0 -14 -6 -31z m9 -91 c-3 -8 -6
-5 -6 6 -1 11 2 17 5 13 3 -3 4 -12 1 -19z m-30 -165 c-2 -32 -3 -6 -3 57 0
63 1 89 3 58 2 -32 2 -84 0 -115z m1750 15 c-2 -18 -4 -4 -4 32 0 36 2 50 4
33 2 -18 2 -48 0 -65z m-1730 30 c-3 -8 -6 -5 -6 6 -1 11 2 17 5 13 3 -3 4
-12 1 -19z m1800 -120 c-3 -7 -5 -2 -5 12 0 14 2 19 5 13 2 -7 2 -19 0 -25z
m-80 -10 c-3 -7 -5 -2 -5 12 0 14 2 19 5 13 2 -7 2 -19 0 -25z m-1700 -40 c-3
-8 -6 -5 -6 6 -1 11 2 17 5 13 3 -3 4 -12 1 -19z m1775 -15 c-3 -16 -7 -22
-10 -15 -4 13 4 42 11 42 2 0 2 -12 -1 -27z m-1795 -5 c-3 -8 -6 -5 -6 6 -1
11 2 17 5 13 3 -3 4 -12 1 -19z m1707 -12 c-3 -15 -8 -25 -11 -23 -2 3 -1 17
3 31 3 15 8 25 11 23 2 -3 1 -17 -3 -31z m-17 -58 c-3 -8 -6 -5 -6 6 -1 11 2
17 5 13 3 -3 4 -12 1 -19z m-16 -49 c-5 -13 -10 -19 -10 -12 -1 15 10 45 15
40 3 -2 0 -15 -5 -28z m-42 -91 c-52 -102 -146 -214 -249 -293 -14 -11 10 14
53 54 83 78 148 163 191 249 14 28 29 52 31 52 3 0 -9 -28 -26 -62z m92 -12
c-11 -25 -22 -46 -25 -46 -2 0 5 22 17 50 11 27 23 48 25 46 2 -3 -5 -25 -17
-50z m-1617 8 c3 -8 2 -12 -4 -9 -6 3 -10 10 -10 16 0 14 7 11 14 -7z m1567
-101 c-10 -21 -33 -56 -50 -78 -41 -51 -163 -176 -168 -171 -2 2 21 28 53 57
62 59 132 146 158 197 9 17 19 32 21 32 3 0 -3 -17 -14 -37z m-1533 -178 c-3
-3 -9 2 -12 12 -6 14 -5 15 5 6 7 -7 10 -15 7 -18z m1302 -78 c0 -2 -10 -12
-22 -23 l-23 -19 19 23 c18 21 26 27 26 19z"/>
<path d="M2540 2614 c-13 -34 -13 -38 8 -57 44 -40 100 -2 80 54 -8 24 -15 29
-44 29 -28 0 -36 -5 -44 -26z"/>
<path d="M2840 3580 c8 -5 22 -9 30 -9 10 0 8 3 -5 9 -27 12 -43 12 -25 0z"/>
<path d="M3165 3566 c17 -14 35 -25 40 -25 11 0 -20 25 -50 41 -11 5 -6 -2 10
-16z"/>
<path d="M2902 3571 c-11 -7 -11 -9 2 -14 9 -4 23 -4 32 0 13 5 13 7 2 14 -7
5 -15 9 -18 9 -3 0 -11 -4 -18 -9z"/>
<path d="M670 3539 c-7 -11 -10 -23 -7 -25 2 -2 9 7 15 21 14 30 7 33 -8 4z"/>
<path d="M2955 3551 c-3 -5 -2 -12 3 -15 5 -3 9 1 9 9 0 17 -3 19 -12 6z"/>
<path d="M4208 3470 c49 -91 121 -263 136 -324 4 -16 9 -26 12 -23 11 11 -83
258 -126 330 -19 32 -20 40 -9 55 12 15 12 16 -2 4 -14 -10 -18 -10 -23 4 -9
23 -8 24 11 17 11 -4 14 -3 9 6 -5 7 -14 10 -21 7 -7 -2 -18 1 -25 7 -6 7 11
-31 38 -83z"/>
<path d="M1834 3528 l-19 -23 23 19 c21 18 27 26 19 26 -2 0 -12 -10 -23 -22z"/>
<path d="M945 3500 c-9 -16 -13 -30 -11 -30 3 0 12 14 21 30 9 17 13 30 11 30
-3 0 -12 -13 -21 -30z"/>
<path d="M1721 3425 c-80 -84 -165 -202 -214 -300 -28 -58 -77 -191 -76 -208
0 -7 11 17 23 53 63 177 150 320 278 455 44 47 78 85 75 85 -2 0 -41 -38 -86
-85z"/>
<path d="M1183 3448 c-31 -51 -123 -239 -123 -253 1 -5 24 40 54 100 29 61 65
129 79 153 15 23 25 42 22 42 -2 0 -17 -19 -32 -42z"/>
<path d="M916 3443 c-6 -14 -5 -15 5 -6 7 7 10 15 7 18 -3 3 -9 -2 -12 -12z"/>
<path d="M4870 3445 c0 -5 5 -17 10 -25 5 -8 10 -10 10 -5 0 6 -5 17 -10 25
-5 8 -10 11 -10 5z"/>
<path d="M3961 3413 c-10 -26 -10 -27 4 -9 8 11 15 23 15 28 0 15 -7 8 -19
-19z"/>
<path d="M3993 3385 c9 -16 23 -39 31 -50 15 -19 16 -18 4 10 -6 17 -20 39
-31 50 -19 20 -19 20 -4 -10z"/>
<path d="M872 3355 c-17 -37 -14 -45 4 -12 9 16 14 31 11 33 -2 2 -9 -7 -15
-21z"/>
<path d="M4901 3360 c0 -8 4 -24 9 -35 5 -13 9 -14 9 -5 0 8 -4 24 -9 35 -5
13 -9 14 -9 5z"/>
<path d="M3468 3350 c6 -8 12 -20 12 -28 0 -12 -3 -12 -17 -1 -16 13 -17 12
-4 -3 7 -10 17 -15 22 -12 5 3 19 -5 30 -18 l20 -23 -14 30 c-8 17 -26 39 -38
50 -13 11 -18 13 -11 5z"/>
<path d="M3465 3267 c1 -15 9 -21 28 -22 25 -2 26 0 14 18 -18 28 -44 30 -42
4z m35 -6 c0 -4 -6 -8 -14 -8 -8 0 -12 6 -9 14 5 13 23 9 23 -6z"/>
<path d="M4075 3225 c9 -37 46 -121 40 -90 -4 17 -15 48 -26 70 -10 22 -17 31
-14 20z"/>
<path d="M3476 3217 c3 -10 9 -15 12 -12 3 3 0 11 -7 18 -10 9 -11 8 -5 -6z"/>
<path d="M813 3205 c-3 -9 -3 -18 -1 -21 3 -3 8 4 11 16 6 23 -1 27 -10 5z"/>
<path d="M4951 3184 c0 -11 3 -14 6 -6 3 7 2 16 -1 19 -3 4 -6 -2 -5 -13z"/>
<path d="M796 3155 c-3 -9 -6 -22 -5 -28 0 -7 5 -1 10 12 5 13 8 26 5 28 -2 2
-6 -3 -10 -12z"/>
<path d="M1036 3135 c-9 -26 -7 -32 5 -12 6 10 9 21 6 23 -2 3 -7 -2 -11 -11z"/>
<path d="M4961 3134 c0 -11 3 -14 6 -6 3 7 2 16 -1 19 -3 4 -6 -2 -5 -13z"/>
<path d="M775 3080 c-4 -17 -5 -34 -2 -36 2 -3 7 10 11 27 8 42 0 50 -9 9z"/>
<path d="M4361 3095 c0 -11 4 -29 9 -40 l9 -20 0 20 c0 11 -4 29 -9 40 l-9 20
0 -20z"/>
<path d="M4971 3094 c0 -11 3 -14 6 -6 3 7 2 16 -1 19 -3 4 -6 -2 -5 -13z"/>
<path d="M1021 3084 c0 -11 3 -14 6 -6 3 7 2 16 -1 19 -3 4 -6 -2 -5 -13z"/>
<path d="M4121 3095 c0 -6 7 -26 15 -45 l14 -35 -6 35 c-5 31 -25 69 -23 45z"/>
<path d="M1006 3035 c-3 -9 -6 -22 -5 -28 0 -7 5 -1 10 12 5 13 8 26 5 28 -2
2 -6 -3 -10 -12z"/>
<path d="M761 3014 c0 -11 3 -14 6 -6 3 7 2 16 -1 19 -3 4 -6 -2 -5 -13z"/>
<path d="M4382 3020 c-1 -8 5 -42 12 -75 8 -33 14 -49 14 -35 0 28 -25 133
-26 110z"/>
<path d="M4652 2990 c0 -14 4 -38 8 -55 7 -27 8 -27 8 -5 0 14 -4 39 -8 55 -7
27 -8 27 -8 5z"/>
<path d="M4991 2994 c0 -11 3 -14 6 -6 3 7 2 16 -1 19 -3 4 -6 -2 -5 -13z"/>
<path d="M4152 2990 c0 -8 4 -26 8 -40 6 -20 8 -21 8 -5 0 11 -3 29 -8 40 -5
12 -8 14 -8 5z"/>
<path d="M991 2974 c0 -11 3 -14 6 -6 3 7 2 16 -1 19 -3 4 -6 -2 -5 -13z"/>
<path d="M751 2964 c0 -11 3 -14 6 -6 3 7 2 16 -1 19 -3 4 -6 -2 -5 -13z"/>
<path d="M981 2934 c0 -11 3 -14 6 -6 3 7 2 16 -1 19 -3 4 -6 -2 -5 -13z"/>
<path d="M741 2924 c0 -11 3 -14 6 -6 3 7 2 16 -1 19 -3 4 -6 -2 -5 -13z"/>
<path d="M3721 2920 c0 -8 4 -24 9 -35 5 -13 9 -14 9 -5 0 8 -4 24 -9 35 -5
13 -9 14 -9 5z"/>
<path d="M4172 2900 c0 -14 2 -19 5 -12 2 6 2 18 0 25 -3 6 -5 1 -5 -13z"/>
<path d="M472 2880 c0 -14 2 -19 5 -12 2 6 2 18 0 25 -3 6 -5 1 -5 -13z"/>
<path d="M972 2875 c0 -16 2 -22 5 -12 2 9 2 23 0 30 -3 6 -5 -1 -5 -18z"/>
<path d="M1412 2845 c-7 -32 -12 -68 -11 -79 0 -12 7 11 15 49 8 39 12 74 11
80 -2 5 -9 -17 -15 -50z"/>
<path d="M4677 2790 c3 -58 7 -107 9 -109 8 -8 3 135 -6 174 -5 27 -6 5 -3
-65z"/>
<path d="M732 2850 c0 -19 2 -27 5 -17 2 9 2 25 0 35 -3 9 -5 1 -5 -18z"/>
<path d="M4417 2800 c3 -41 7 -77 9 -79 7 -8 3 74 -6 114 -6 30 -7 21 -3 -35z"/>
<path d="M5012 2850 c0 -14 2 -19 5 -12 2 6 2 18 0 25 -3 6 -5 1 -5 -13z"/>
<path d="M3741 2839 c0 -13 4 -33 9 -44 7 -14 8 -8 3 20 -7 46 -13 59 -12 24z"/>
<path d="M461 2814 c0 -11 3 -14 6 -6 3 7 2 16 -1 19 -3 4 -6 -2 -5 -13z"/>
<path d="M962 2800 c0 -19 2 -27 5 -17 2 9 2 25 0 35 -3 9 -5 1 -5 -18z"/>
<path d="M722 2780 c0 -19 2 -27 5 -17 2 9 2 25 0 35 -3 9 -5 1 -5 -18z"/>
<path d="M953 2680 c0 -47 2 -66 4 -42 2 23 2 61 0 85 -2 23 -4 4 -4 -43z"/>
<path d="M1394 2610 c0 -69 1 -97 3 -62 2 34 2 90 0 125 -2 34 -3 6 -3 -63z"/>
<path d="M3763 2680 c0 -30 2 -43 4 -27 2 15 2 39 0 55 -2 15 -4 2 -4 -28z"/>
<path d="M454 2595 c0 -60 1 -84 3 -52 2 32 2 81 0 110 -2 29 -3 3 -3 -58z"/>
<path d="M717 2550 c2 -80 9 -165 13 -190 7 -35 7 -28 3 29 -3 41 -9 126 -14
190 -7 112 -7 111 -2 -29z"/>
<path d="M4433 2600 c0 -41 2 -58 4 -37 2 20 2 54 0 75 -2 20 -4 3 -4 -38z"/>
<path d="M4683 2577 c0 -50 -4 -135 -6 -187 -4 -63 -3 -80 3 -50 12 71 23 330
14 330 -5 0 -10 -42 -11 -93z"/>
<path d="M953 2515 c0 -38 2 -53 4 -32 2 20 2 52 0 70 -2 17 -4 1 -4 -38z"/>
<path d="M3763 2510 c0 -30 2 -43 4 -27 2 15 2 39 0 55 -2 15 -4 2 -4 -28z"/>
<path d="M4416 2401 c-3 -41 -4 -76 -2 -78 6 -6 19 123 14 139 -3 7 -8 -20
-12 -61z"/>
<path d="M461 2444 c0 -11 3 -14 6 -6 3 7 2 16 -1 19 -3 4 -6 -2 -5 -13z"/>
<path d="M962 2400 c0 -19 2 -27 5 -17 2 9 2 25 0 35 -3 9 -5 1 -5 -18z"/>
<path d="M462 2390 c0 -14 2 -19 5 -12 2 6 2 18 0 25 -3 6 -5 1 -5 -13z"/>
<path d="M473 2315 c0 -22 2 -30 4 -17 2 12 2 30 0 40 -3 9 -5 -1 -4 -23z"/>
<path d="M972 2325 c0 -16 2 -22 5 -12 2 9 2 23 0 30 -3 6 -5 -1 -5 -18z"/>
<path d="M1421 2314 c0 -11 3 -14 6 -6 3 7 2 16 -1 19 -3 4 -6 -2 -5 -13z"/>
<path d="M742 2285 c0 -16 3 -39 8 -50 l9 -20 -1 20 c0 11 -4 34 -8 50 l-8 30
0 -30z"/>
<path d="M4396 2259 c-4 -23 -5 -44 -2 -46 2 -2 7 14 11 37 4 23 5 43 2 46 -2
3 -7 -14 -11 -37z"/>
<path d="M982 2275 c0 -11 4 -31 8 -45 6 -20 8 -21 8 -5 0 11 -4 31 -8 45 -6
20 -8 21 -8 5z"/>
<path d="M1431 2284 c-1 -17 42 -139 46 -129 1 6 -8 39 -22 75 -13 36 -24 60
-24 54z"/>
<path d="M4655 2245 c-3 -26 -4 -49 -2 -52 3 -3 9 16 12 42 4 25 5 48 2 51 -2
3 -8 -16 -12 -41z"/>
<path d="M482 2250 c0 -14 4 -38 8 -55 7 -27 8 -27 8 -5 0 14 -4 39 -8 55 -7
27 -8 27 -8 5z"/>
<path d="M761 2189 c0 -13 4 -33 9 -44 7 -14 8 -8 3 20 -7 46 -13 59 -12 24z"/>
<path d="M1001 2190 c0 -8 4 -24 9 -35 5 -13 9 -14 9 -5 0 8 -4 24 -9 35 -5
13 -9 14 -9 5z"/>
<path d="M4366 2128 c-26 -101 -28 -116 -8 -63 19 51 36 125 29 125 -3 0 -12
-28 -21 -62z"/>
<path d="M4631 2118 c-7 -34 -28 -110 -46 -168 -19 -57 -33 -106 -30 -108 10
-10 100 307 93 329 -2 6 -9 -18 -17 -53z"/>
<path d="M501 2150 c0 -8 6 -37 13 -65 8 -27 15 -43 15 -35 0 8 -6 38 -13 65
-8 28 -15 43 -15 35z"/>
<path d="M4310 1948 c-12 -35 -42 -105 -66 -155 -23 -51 -41 -93 -38 -93 13 0
140 297 131 306 -2 2 -14 -24 -27 -58z"/>
<path d="M1550 1901 c0 -6 4 -13 10 -16 6 -3 7 1 4 9 -7 18 -14 21 -14 7z"/>
<path d="M4016 1843 c-6 -14 -5 -15 5 -6 7 7 10 15 7 18 -3 3 -9 -2 -12 -12z"/>
<path d="M1830 1826 c0 -2 8 -10 18 -17 15 -13 16 -12 3 4 -13 16 -21 21 -21
13z"/>
<path d="M4536 1815 c-9 -26 -7 -32 5 -12 6 10 9 21 6 23 -2 3 -7 -2 -11 -11z"/>
<path d="M370 1815 c0 -5 5 -17 10 -25 5 -8 10 -10 10 -5 0 6 -5 17 -10 25 -5
8 -10 11 -10 5z"/>
<path d="M1538 1783 c7 -3 16 -2 19 1 4 3 -2 6 -13 5 -11 0 -14 -3 -6 -6z"/>
<path d="M4512 1755 c-17 -37 -14 -45 4 -12 9 16 14 31 11 33 -2 2 -9 -7 -15
-21z"/>
<path d="M2095 1696 c39 -25 55 -31 55 -21 0 3 -17 12 -37 22 -59 26 -61 26
-18 -1z"/>
<path d="M4485 1699 c-4 -6 -5 -12 -2 -15 2 -3 7 2 10 11 7 17 1 20 -8 4z"/>
<path d="M1940 1671 c19 -17 39 -31 44 -31 15 0 -11 24 -46 43 l-33 19 35 -31z"/>
<path d="M1295 1670 c-3 -5 -1 -10 4 -10 6 0 11 5 11 10 0 6 -2 10 -4 10 -3 0
-8 -4 -11 -10z"/>
<path d="M2167 1659 c7 -7 15 -10 18 -7 3 3 -2 9 -12 12 -14 6 -15 5 -6 -5z"/>
<path d="M491 1644 c0 -11 3 -14 6 -6 3 7 2 16 -1 19 -3 4 -6 -2 -5 -13z"/>
<path d="M423 1631 c0 -11 5 -18 9 -15 4 3 5 11 1 19 -7 21 -12 19 -10 -4z"/>
<path d="M455 1620 c-3 -5 -2 -17 3 -26 6 -11 11 -13 16 -5 4 6 2 11 -4 11 -7
0 -10 7 -6 15 6 17 0 20 -9 5z"/>
<path d="M2077 1609 c7 -7 15 -10 18 -7 3 3 -2 9 -12 12 -14 6 -15 5 -6 -5z"/>
<path d="M2110 1596 c0 -3 9 -10 20 -16 11 -6 20 -8 20 -6 0 3 -9 10 -20 16
-11 6 -20 8 -20 6z"/>
<path d="M516 1581 c-3 -5 1 -14 9 -21 12 -10 15 -10 15 3 0 19 -16 31 -24 18z"/>
<path d="M1283 1563 c9 -11 14 -23 10 -28 -5 -4 -2 -5 5 -1 18 10 15 19 -10
35 -22 13 -23 13 -5 -6z"/>
<path d="M2598 1553 c6 -2 18 -2 25 0 6 3 1 5 -13 5 -14 0 -19 -2 -12 -5z"/>
<path d="M2478 1543 c6 -2 18 -2 25 0 6 3 1 5 -13 5 -14 0 -19 -2 -12 -5z"/>
<path d="M470 1530 c-9 -6 -10 -10 -3 -10 6 0 15 5 18 10 8 12 4 12 -15 0z"/>
<path d="M610 1520 c0 -5 7 -10 15 -10 8 0 15 -6 15 -12 0 -9 4 -8 10 2 5 8
10 20 10 25 0 6 -5 3 -10 -5 -6 -10 -10 -11 -10 -2 0 6 -7 12 -15 12 -8 0 -15
-4 -15 -10z"/>
<path d="M990 1520 c0 -5 5 -10 11 -10 5 0 7 5 4 10 -3 6 -8 10 -11 10 -2 0
-4 -4 -4 -10z"/>
<path d="M3070 1520 c-8 -5 -10 -10 -5 -10 6 0 17 5 25 10 8 5 11 10 5 10 -5
0 -17 -5 -25 -10z"/>
<path d="M2439 1507 c5 -5 19 -7 32 -5 20 3 19 5 -9 9 -20 3 -29 2 -23 -4z"/>
<path d="M905 1500 c-3 -5 -1 -10 4 -10 6 0 11 5 11 10 0 6 -2 10 -4 10 -3 0
-8 -4 -11 -10z"/>
<path d="M3030 1500 c-9 -6 -10 -10 -3 -10 6 0 15 5 18 10 8 12 4 12 -15 0z"/>
<path d="M2528 1493 c7 -3 16 -2 19 1 4 3 -2 6 -13 5 -11 0 -14 -3 -6 -6z"/>
<path d="M2593 1493 c9 -2 25 -2 35 0 9 3 1 5 -18 5 -19 0 -27 -2 -17 -5z"/>
<path d="M511 1456 c-7 -8 -8 -17 -3 -20 6 -3 15 1 21 8 7 8 8 17 3 20 -6 3
-15 -1 -21 -8z"/>
<path d="M750 1464 c0 -6 7 -19 15 -30 8 -10 14 -14 14 -9 0 6 -6 19 -14 29
-8 11 -15 15 -15 10z"/>
<path d="M2763 1453 c9 -2 23 -2 30 0 6 3 -1 5 -18 5 -16 0 -22 -2 -12 -5z"/>
<path d="M2668 1443 c12 -2 32 -2 45 0 12 2 2 4 -23 4 -25 0 -35 -2 -22 -4z"/>
<path d="M2888 1413 c7 -3 16 -2 19 1 4 3 -2 6 -13 5 -11 0 -14 -3 -6 -6z"/>
<path d="M2848 1403 c7 -3 16 -2 19 1 4 3 -2 6 -13 5 -11 0 -14 -3 -6 -6z"/>
<path d="M2776 1392 c-3 -5 8 -6 25 -4 16 2 29 6 29 8 0 8 -49 4 -54 -4z"/>
<path d="M840 1341 c0 -6 4 -13 10 -16 6 -3 7 1 4 9 -7 18 -14 21 -14 7z"/>
<path d="M2778 1333 c7 -3 16 -2 19 1 4 3 -2 6 -13 5 -11 0 -14 -3 -6 -6z"/>
<path d="M2730 1209 c0 -4 5 -11 10 -14 6 -3 10 0 10 7 0 11 2 10 9 0 7 -11 9
-11 14 0 3 10 -3 14 -19 14 -13 0 -24 -3 -24 -7z"/>
<path d="M2766 1158 c3 -5 10 -6 15 -3 13 9 11 12 -6 12 -8 0 -12 -4 -9 -9z"/>
<path d="M2808 1163 c7 -3 16 -2 19 1 4 3 -2 6 -13 5 -11 0 -14 -3 -6 -6z"/>
<path d="M2950 960 c0 -5 4 -10 9 -10 6 0 13 5 16 10 3 6 -1 10 -9 10 -9 0
-16 -4 -16 -10z"/>
<path d="M2780 900 c0 -12 8 -12 35 0 18 8 17 9 -7 9 -16 1 -28 -3 -28 -9z"/>
<path d="M3310 895 c-14 -8 -20 -14 -15 -14 6 0 21 6 35 14 14 8 21 14 15 14
-5 0 -21 -6 -35 -14z"/>
<path d="M2970 731 c0 -6 7 -8 16 -4 9 3 20 0 26 -8 8 -12 9 -11 5 1 -4 17
-47 27 -47 11z"/>
<path d="M2905 660 c-3 -5 -1 -10 4 -10 6 0 11 5 11 10 0 6 -2 10 -4 10 -3 0
-8 -4 -11 -10z"/>
<path d="M3290 610 c-8 -5 -10 -10 -5 -10 6 0 17 5 25 10 8 5 11 10 5 10 -5 0
-17 -5 -25 -10z"/>
<path d="M2956 483 c-4 -9 -3 -20 2 -25 6 -6 10 1 10 16 0 30 -3 32 -12 9z"/>
<path d="M3150 349 c0 -6 -9 -9 -20 -6 -11 3 -18 1 -14 -4 8 -14 30 -11 44 6
9 10 9 15 1 15 -6 0 -11 -5 -11 -11z"/>
<path d="M3170 330 c0 -5 7 -7 15 -4 8 4 15 8 15 10 0 2 -7 4 -15 4 -8 0 -15
-4 -15 -10z"/>
<path d="M3970 4556 c0 -2 7 -7 16 -10 8 -3 12 -2 9 4 -6 10 -25 14 -25 6z"/>
<path d="M4700 1451 c0 -7 -5 -9 -12 -5 -7 5 -8 3 -3 -5 4 -8 -4 -25 -21 -43
-16 -17 -24 -28 -17 -24 6 3 14 2 18 -4 7 -12 25 -4 25 11 0 6 -5 7 -11 4 -6
-4 -5 2 2 13 7 12 16 19 20 16 12 -7 20 29 9 40 -7 7 -10 6 -10 -3z"/>
<path d="M4616 1342 c-7 -11 -1 -48 7 -44 4 1 10 2 13 2 4 0 1 7 -6 15 -6 8
-9 19 -5 25 3 5 4 10 1 10 -3 0 -7 -4 -10 -8z"/>
<path d="M4504 1105 c3 -21 16 -31 16 -12 0 9 -4 18 -9 21 -5 4 -8 -1 -7 -9z"/>
<path d="M4304 898 l-19 -23 23 19 c21 18 27 26 19 26 -2 0 -12 -10 -23 -22z"/>
<path d="M4210 785 c-8 -9 -8 -15 -2 -15 12 0 26 19 19 26 -2 2 -10 -2 -17
-11z"/>
<path d="M1689 295 c18 -8 36 -15 40 -15 13 1 -45 29 -59 29 -8 0 0 -6 19 -14z"/>
<path d="M1898 223 c7 -3 16 -2 19 1 4 3 -2 6 -13 5 -11 0 -14 -3 -6 -6z"/>
<path d="M1938 213 c7 -3 16 -2 19 1 4 3 -2 6 -13 5 -11 0 -14 -3 -6 -6z"/>
<path d="M2018 193 c7 -3 16 -2 19 1 4 3 -2 6 -13 5 -11 0 -14 -3 -6 -6z"/>
<path d="M2058 183 c7 -3 16 -2 19 1 4 3 -2 6 -13 5 -11 0 -14 -3 -6 -6z"/>
<path d="M2120 170 c25 -8 87 -13 79 -6 -2 2 -26 6 -54 9 -34 4 -42 3 -25 -3z"/>
<path d="M2223 153 c9 -2 25 -2 35 0 9 3 1 5 -18 5 -19 0 -27 -2 -17 -5z"/>
<path d="M2473 133 c48 -2 126 -2 175 0 48 1 8 3 -88 3 -96 0 -136 -2 -87 -3z"/>
<path d="M2030 1686 c0 -3 9 -10 20 -16 11 -6 20 -8 20 -6 0 3 -9 10 -20 16
-11 6 -20 8 -20 6z"/>
</g>
</svg>
